u2194_ 10 - 100.ufo
<glyph name="numbersign" format="1">
  <advance width="900"/>
  <unicode hex="0023"/>
  <outline>
    <contour>
      <point x="547" y="-25" type="curve" smooth="yes"/>
      <point x="578" y="99" type="line"/>
      <point x="650" y="99" type="line" smooth="yes"/>
      <point x="704" y="99"/>
      <point x="750" y="145"/>
      <point x="750" y="199" type="curve" smooth="yes"/>
      <point x="750" y="253"/>
      <point x="704" y="299"/>
      <point x="650" y="299" type="curve" smooth="yes"/>
      <point x="628" y="299" type="line"/>
      <point x="678" y="499" type="line"/>
      <point x="750" y="499" type="line" smooth="yes"/>
      <point x="804" y="499"/>
      <point x="850" y="545"/>
      <point x="850" y="599" type="curve" smooth="yes"/>
      <point x="850" y="653"/>
      <point x="804" y="699"/>
      <point x="750" y="699" type="curve" smooth="yes"/>
      <point x="728" y="699" type="line"/>
      <point x="745" y="765" type="line"/>
      <point x="747" y="775" type="line" smooth="yes"/>
      <point x="760" y="827"/>
      <point x="727" y="883"/>
      <point x="674" y="896" type="curve" smooth="yes"/>
      <point x="622" y="909"/>
      <point x="566" y="876"/>
      <point x="553" y="823" type="curve" smooth="yes"/>
      <point x="549" y="808" type="line"/>
      <point x="545" y="849"/>
      <point x="515" y="886"/>
      <point x="474" y="896" type="curve" smooth="yes"/>
      <point x="422" y="909"/>
      <point x="366" y="876"/>
      <point x="353" y="823" type="curve" smooth="yes"/>
      <point x="322" y="699" type="line"/>
      <point x="244" y="699" type="line" smooth="yes"/>
      <point x="190" y="699"/>
      <point x="144" y="653"/>
      <point x="144" y="599" type="curve" smooth="yes"/>
      <point x="144" y="545"/>
      <point x="190" y="499"/>
      <point x="244" y="499" type="curve" smooth="yes"/>
      <point x="272" y="499" type="line"/>
      <point x="222" y="299" type="line"/>
      <point x="150" y="299" type="line" smooth="yes"/>
      <point x="96" y="299"/>
      <point x="50" y="253"/>
      <point x="50" y="199" type="curve" smooth="yes"/>
      <point x="50" y="145"/>
      <point x="96" y="99"/>
      <point x="150" y="99" type="curve" smooth="yes"/>
      <point x="172" y="99" type="line"/>
      <point x="155" y="33" type="line"/>
      <point x="153" y="23" type="line" smooth="yes"/>
      <point x="140" y="-29"/>
      <point x="173" y="-85"/>
      <point x="226" y="-98" type="curve" smooth="yes"/>
      <point x="278" y="-111"/>
      <point x="334" y="-78"/>
      <point x="347" y="-25" type="curve" smooth="yes"/>
      <point x="351" y="-10" type="line"/>
      <point x="355" y="-51"/>
      <point x="385" y="-88"/>
      <point x="426" y="-98" type="curve" smooth="yes"/>
      <point x="478" y="-111"/>
      <point x="534" y="-78"/>
    </contour>
  </outline>
</glyph>
<glyph name="dollar" format="1">
  <advance width="901"/>
  <unicode hex="0024"/>
  <outline>
    <contour>
      <point x="263" y="680" type="line"/>
      <point x="264" y="681" type="line"/>
      <point x="266" y="682" type="line"/>
      <point x="267" y="684" type="line"/>
      <point x="262" y="679" type="line"/>
    </contour>
    <contour>
      <point x="635" y="680" type="line"/>
      <point x="630" y="684" type="line"/>
      <point x="633" y="682" type="line"/>
    </contour>
    <contour>
      <point x="269" y="512" type="line"/>
      <point x="268" y="513" type="line"/>
      <point x="266" y="514" type="line"/>
      <point x="265" y="516" type="line"/>
      <point x="270" y="511" type="line"/>
    </contour>
    <contour>
      <point x="350" y="499" type="line"/>
      <point x="343" y="499" type="line"/>
      <point x="336" y="499" type="line"/>
      <point x="330" y="499" type="line"/>
      <point x="324" y="499" type="line"/>
      <point x="318" y="499" type="line"/>
      <point x="312" y="500" type="line"/>
      <point x="306" y="500" type="line"/>
      <point x="301" y="501" type="line"/>
      <point x="296" y="501" type="line"/>
      <point x="291" y="502" type="line"/>
      <point x="287" y="503" type="line"/>
      <point x="283" y="504" type="line"/>
      <point x="280" y="505" type="line"/>
      <point x="277" y="507" type="line"/>
      <point x="274" y="508" type="line"/>
      <point x="272" y="509" type="line"/>
      <point x="270" y="510" type="line"/>
      <point x="270" y="511" type="line"/>
      <point x="264" y="518" type="line"/>
      <point x="263" y="520" type="line"/>
      <point x="261" y="523" type="line"/>
      <point x="260" y="527" type="line"/>
      <point x="258" y="532" type="line"/>
      <point x="256" y="538" type="line"/>
      <point x="255" y="544" type="line"/>
      <point x="253" y="553" type="line"/>
      <point x="252" y="562" type="line"/>
      <point x="251" y="573" type="line"/>
      <point x="250" y="585" type="line"/>
      <point x="250" y="599" type="line"/>
      <point x="250" y="606" type="line"/>
      <point x="250" y="612" type="line"/>
      <point x="250" y="619" type="line"/>
      <point x="250" y="625" type="line"/>
      <point x="250" y="631" type="line"/>
      <point x="251" y="637" type="line"/>
      <point x="251" y="643" type="line"/>
      <point x="252" y="648" type="line"/>
      <point x="252" y="653" type="line"/>
      <point x="253" y="657" type="line"/>
      <point x="254" y="662" type="line"/>
      <point x="255" y="666" type="line"/>
      <point x="256" y="669" type="line"/>
      <point x="258" y="672" type="line"/>
      <point x="259" y="675" type="line"/>
      <point x="260" y="677" type="line"/>
      <point x="261" y="678" type="line"/>
      <point x="262" y="679" type="line"/>
      <point x="269" y="685" type="line"/>
      <point x="272" y="686" type="line"/>
      <point x="275" y="688" type="line"/>
      <point x="278" y="689" type="line"/>
      <point x="283" y="691" type="line"/>
      <point x="289" y="693" type="line"/>
      <point x="296" y="694" type="line"/>
      <point x="304" y="696" type="line"/>
      <point x="313" y="697" type="line"/>
      <point x="324" y="698" type="line"/>
      <point x="336" y="699" type="line"/>
      <point x="350" y="699" type="line"/>
      <point x="351" y="699" type="line"/>
      <point x="351" y="499" type="line"/>
    </contour>
    <contour>
      <point x="551" y="99" type="line"/>
      <point x="551" y="299" type="line"/>
      <point x="551" y="299" type="line"/>
      <point x="558" y="299" type="line"/>
      <point x="564" y="299" type="line"/>
      <point x="570" y="299" type="line"/>
      <point x="576" y="299" type="line"/>
      <point x="582" y="299" type="line"/>
      <point x="587" y="298" type="line"/>
      <point x="592" y="298" type="line"/>
      <point x="597" y="298" type="line"/>
      <point x="602" y="297" type="line"/>
      <point x="606" y="297" type="line"/>
      <point x="610" y="296" type="line"/>
      <point x="613" y="295" type="line"/>
      <point x="616" y="294" type="line"/>
      <point x="619" y="294" type="line"/>
      <point x="621" y="293" type="line"/>
      <point x="623" y="292" type="line"/>
      <point x="625" y="291" type="line"/>
      <point x="626" y="291" type="line"/>
      <point x="628" y="290" type="line"/>
      <point x="629" y="289" type="line"/>
      <point x="635" y="283" type="line"/>
      <point x="636" y="281" type="line"/>
      <point x="638" y="277" type="line"/>
      <point x="641" y="272" type="line"/>
      <point x="643" y="266" type="line"/>
      <point x="645" y="259" type="line"/>
      <point x="647" y="251" type="line"/>
      <point x="649" y="241" type="line"/>
      <point x="650" y="230" type="line"/>
      <point x="651" y="217" type="line"/>
      <point x="651" y="201" type="line"/>
      <point x="651" y="195" type="line"/>
      <point x="651" y="189" type="line"/>
      <point x="651" y="183" type="line"/>
      <point x="651" y="177" type="line"/>
      <point x="651" y="171" type="line"/>
      <point x="650" y="166" type="line"/>
      <point x="650" y="161" type="line"/>
      <point x="649" y="156" type="line"/>
      <point x="649" y="151" type="line"/>
      <point x="648" y="147" type="line"/>
      <point x="647" y="143" type="line"/>
      <point x="647" y="139" type="line"/>
      <point x="646" y="136" type="line"/>
      <point x="645" y="133" type="line"/>
      <point x="644" y="131" type="line"/>
      <point x="643" y="128" type="line"/>
      <point x="642" y="126" type="line"/>
      <point x="641" y="125" type="line"/>
      <point x="640" y="123" type="line"/>
      <point x="639" y="122" type="line"/>
      <point x="633" y="115" type="line"/>
      <point x="631" y="114" type="line"/>
      <point x="627" y="112" type="line"/>
      <point x="622" y="110" type="line"/>
      <point x="616" y="107" type="line"/>
      <point x="609" y="105" type="line"/>
      <point x="600" y="103" type="line"/>
      <point x="591" y="102" type="line"/>
      <point x="579" y="100" type="line"/>
      <point x="567" y="99" type="line"/>
    </contour>
    <contour>
      <point x="350" y="-101" type="line" smooth="yes"/>
      <point x="551" y="-101" type="line"/>
      <point x="571" y="-101" type="line"/>
      <point x="592" y="-99" type="line"/>
      <point x="612" y="-97" type="line"/>
      <point x="632" y="-94" type="line"/>
      <point x="651" y="-90" type="line"/>
      <point x="669" y="-85" type="line"/>
      <point x="687" y="-80" type="line"/>
      <point x="704" y="-73" type="line"/>
      <point x="720" y="-65" type="line"/>
      <point x="735" y="-56" type="line"/>
      <point x="750" y="-46" type="line"/>
      <point x="764" y="-36" type="line" smooth="yes"/>
      <point x="765" y="-35"/>
      <point x="768" y="-32"/>
      <point x="769" y="-31" type="curve" smooth="yes"/>
      <point x="776" y="-24" type="line"/>
      <point x="788" y="-12" type="line"/>
      <point x="798" y="0" type="line"/>
      <point x="807" y="13" type="line"/>
      <point x="815" y="27" type="line"/>
      <point x="822" y="40" type="line"/>
      <point x="828" y="53" type="line"/>
      <point x="833" y="67" type="line"/>
      <point x="838" y="80" type="line"/>
      <point x="841" y="92" type="line"/>
      <point x="844" y="105" type="line"/>
      <point x="846" y="117" type="line"/>
      <point x="848" y="128" type="line"/>
      <point x="849" y="139" type="line"/>
      <point x="850" y="150" type="line"/>
      <point x="850" y="160" type="line"/>
      <point x="851" y="169" type="line"/>
      <point x="851" y="178" type="line"/>
      <point x="851" y="187" type="line"/>
      <point x="851" y="194" type="line"/>
      <point x="851" y="201" type="line"/>
      <point x="851" y="221" type="line"/>
      <point x="849" y="242" type="line"/>
      <point x="847" y="262" type="line"/>
      <point x="844" y="281" type="line"/>
      <point x="841" y="300" type="line"/>
      <point x="836" y="319" type="line"/>
      <point x="830" y="336" type="line"/>
      <point x="823" y="353" type="line"/>
      <point x="816" y="369" type="line"/>
      <point x="807" y="384" type="line"/>
      <point x="797" y="399" type="line"/>
      <point x="787" y="413" type="line" smooth="yes"/>
      <point x="786" y="414"/>
      <point x="783" y="417"/>
      <point x="782" y="418" type="curve" smooth="yes"/>
      <point x="776" y="425" type="line"/>
      <point x="763" y="437" type="line"/>
      <point x="751" y="447" type="line"/>
      <point x="738" y="456" type="line"/>
      <point x="724" y="464" type="line"/>
      <point x="711" y="471" type="line"/>
      <point x="698" y="477" type="line"/>
      <point x="685" y="482" type="line"/>
      <point x="672" y="486" type="line"/>
      <point x="659" y="490" type="line"/>
      <point x="647" y="492" type="line"/>
      <point x="635" y="494" type="line"/>
      <point x="623" y="496" type="line"/>
      <point x="612" y="497" type="line"/>
      <point x="602" y="498" type="line"/>
      <point x="592" y="498" type="line"/>
      <point x="582" y="499" type="line"/>
      <point x="573" y="499" type="line"/>
      <point x="565" y="499" type="line"/>
      <point x="558" y="499" type="line"/>
      <point x="551" y="499" type="line"/>
      <point x="551" y="699" type="line"/>
      <point x="565" y="699" type="line"/>
      <point x="577" y="698" type="line"/>
      <point x="589" y="697" type="line"/>
      <point x="598" y="695" type="line"/>
      <point x="607" y="693" type="line"/>
      <point x="614" y="691" type="line"/>
      <point x="621" y="689" type="line"/>
      <point x="626" y="686" type="line"/>
      <point x="630" y="684" type="line"/>
      <point x="630" y="684" type="line"/>
      <point x="637" y="678" type="line"/>
      <point x="639" y="676" type="line"/>
      <point x="640" y="675" type="line"/>
      <point x="641" y="673" type="line"/>
      <point x="642" y="671" type="line"/>
      <point x="643" y="670" type="line"/>
      <point x="644" y="667" type="line"/>
      <point x="645" y="665" type="line"/>
      <point x="645" y="662" type="line"/>
      <point x="646" y="659" type="line"/>
      <point x="647" y="656" type="line"/>
      <point x="648" y="652" type="line"/>
      <point x="649" y="648" type="line"/>
      <point x="649" y="643" type="line"/>
      <point x="650" y="638" type="line"/>
      <point x="650" y="633" type="line"/>
      <point x="651" y="628" type="line"/>
      <point x="651" y="623" type="line"/>
      <point x="651" y="617" type="line"/>
      <point x="651" y="611" type="line"/>
      <point x="651" y="605" type="line"/>
      <point x="651" y="599" type="line" smooth="yes"/>
      <point x="651" y="545"/>
      <point x="697" y="499"/>
      <point x="751" y="499" type="curve" smooth="yes"/>
      <point x="805" y="499"/>
      <point x="851" y="545"/>
      <point x="851" y="599" type="curve" smooth="yes"/>
      <point x="851" y="606" type="line"/>
      <point x="851" y="614" type="line"/>
      <point x="851" y="622" type="line"/>
      <point x="851" y="632" type="line"/>
      <point x="850" y="641" type="line"/>
      <point x="849" y="651" type="line"/>
      <point x="848" y="662" type="line"/>
      <point x="847" y="673" type="line"/>
      <point x="845" y="685" type="line"/>
      <point x="843" y="697" type="line"/>
      <point x="840" y="709" type="line"/>
      <point x="836" y="722" type="line"/>
      <point x="832" y="735" type="line"/>
      <point x="827" y="748" type="line"/>
      <point x="820" y="761" type="line"/>
      <point x="813" y="774" type="line"/>
      <point x="805" y="787" type="line"/>
      <point x="795" y="800" type="line"/>
      <point x="785" y="813" type="line"/>
      <point x="773" y="824" type="line"/>
      <point x="761" y="836" type="line"/>
      <point x="753" y="842" type="line" smooth="yes"/>
      <point x="751" y="843"/>
      <point x="749" y="845"/>
      <point x="747" y="846" type="curve" smooth="yes"/>
      <point x="732" y="855" type="line"/>
      <point x="717" y="864" type="line"/>
      <point x="701" y="872" type="line"/>
      <point x="684" y="878" type="line"/>
      <point x="666" y="884" type="line"/>
      <point x="648" y="889" type="line"/>
      <point x="629" y="892" type="line"/>
      <point x="610" y="895" type="line"/>
      <point x="590" y="897" type="line"/>
      <point x="569" y="899" type="line"/>
      <point x="551" y="899" type="line" smooth="yes"/>
      <point x="550" y="899"/>
      <point x="550" y="899"/>
      <point x="549" y="899" type="curve" smooth="yes"/>
      <point x="358" y="899" type="line"/>
      <point x="346" y="899" type="line"/>
      <point x="324" y="898" type="line"/>
      <point x="303" y="897" type="line"/>
      <point x="282" y="895" type="line"/>
      <point x="262" y="891" type="line"/>
      <point x="243" y="887" type="line"/>
      <point x="225" y="882" type="line"/>
      <point x="207" y="876" type="line"/>
      <point x="190" y="868" type="line"/>
      <point x="173" y="860" type="line"/>
      <point x="158" y="851" type="line"/>
      <point x="144" y="841" type="line"/>
      <point x="136" y="834" type="line" smooth="yes"/>
      <point x="135" y="833"/>
      <point x="132" y="831"/>
      <point x="130" y="830" type="curve" smooth="yes"/>
      <point x="118" y="818" type="line"/>
      <point x="107" y="805" type="line"/>
      <point x="97" y="793" type="line"/>
      <point x="89" y="779" type="line"/>
      <point x="81" y="766" type="line"/>
      <point x="75" y="753" type="line"/>
      <point x="70" y="740" type="line"/>
      <point x="65" y="727" type="line"/>
      <point x="61" y="715" type="line"/>
      <point x="58" y="702" type="line"/>
      <point x="56" y="690" type="line"/>
      <point x="54" y="679" type="line"/>
      <point x="53" y="668" type="line"/>
      <point x="52" y="657" type="line"/>
      <point x="51" y="647" type="line"/>
      <point x="50" y="637" type="line"/>
      <point x="50" y="628" type="line"/>
      <point x="50" y="620" type="line"/>
      <point x="50" y="612" type="line"/>
      <point x="50" y="605" type="line"/>
      <point x="50" y="595" type="line"/>
      <point x="51" y="573" type="line"/>
      <point x="52" y="552" type="line"/>
      <point x="54" y="531" type="line"/>
      <point x="58" y="511" type="line"/>
      <point x="62" y="492" type="line"/>
      <point x="67" y="474" type="line"/>
      <point x="73" y="456" type="line"/>
      <point x="80" y="439" type="line"/>
      <point x="89" y="423" type="line"/>
      <point x="98" y="407" type="line"/>
      <point x="108" y="393" type="line"/>
      <point x="114" y="385" type="line" smooth="yes"/>
      <point x="115" y="384"/>
      <point x="118" y="381"/>
      <point x="119" y="380" type="curve" smooth="yes"/>
      <point x="131" y="367" type="line"/>
      <point x="143" y="356" type="line"/>
      <point x="156" y="347" type="line"/>
      <point x="169" y="338" type="line"/>
      <point x="182" y="330" type="line"/>
      <point x="195" y="324" type="line"/>
      <point x="209" y="319" type="line"/>
      <point x="221" y="314" type="line"/>
      <point x="234" y="310" type="line"/>
      <point x="246" y="307" type="line"/>
      <point x="258" y="305" type="line"/>
      <point x="270" y="303" type="line"/>
      <point x="281" y="302" type="line"/>
      <point x="292" y="301" type="line"/>
      <point x="302" y="300" type="line"/>
      <point x="311" y="299" type="line"/>
      <point x="320" y="299" type="line"/>
      <point x="329" y="299" type="line"/>
      <point x="336" y="299" type="line"/>
      <point x="344" y="299" type="line"/>
      <point x="350" y="299" type="line"/>
      <point x="351" y="299" type="line"/>
      <point x="351" y="99" type="line"/>
      <point x="350" y="99" type="line"/>
      <point x="344" y="99" type="line"/>
      <point x="338" y="99" type="line"/>
      <point x="332" y="99" type="line"/>
      <point x="326" y="99" type="line"/>
      <point x="320" y="99" type="line"/>
      <point x="315" y="100" type="line"/>
      <point x="310" y="100" type="line"/>
      <point x="305" y="101" type="line"/>
      <point x="300" y="101" type="line"/>
      <point x="296" y="102" type="line"/>
      <point x="292" y="103" type="line"/>
      <point x="289" y="103" type="line"/>
      <point x="286" y="104" type="line"/>
      <point x="283" y="105" type="line"/>
      <point x="281" y="106" type="line"/>
      <point x="279" y="107" type="line"/>
      <point x="277" y="108" type="line"/>
      <point x="275" y="108" type="line"/>
      <point x="269" y="114" type="line"/>
      <point x="267" y="116" type="line"/>
      <point x="265" y="119" type="line"/>
      <point x="263" y="123" type="line"/>
      <point x="260" y="128" type="line"/>
      <point x="258" y="134" type="line"/>
      <point x="256" y="141" type="line"/>
      <point x="254" y="150" type="line"/>
      <point x="252" y="159" type="line"/>
      <point x="251" y="171" type="line"/>
      <point x="250" y="183" type="line"/>
      <point x="250" y="201" type="line" smooth="yes"/>
      <point x="249" y="255"/>
      <point x="202" y="300"/>
      <point x="148" y="299" type="curve" smooth="yes"/>
      <point x="94" y="298"/>
      <point x="49" y="251"/>
      <point x="50" y="197" type="curve" smooth="yes"/>
      <point x="50" y="179" type="line"/>
      <point x="52" y="158" type="line"/>
      <point x="54" y="138" type="line"/>
      <point x="57" y="119" type="line"/>
      <point x="60" y="100" type="line"/>
      <point x="65" y="82" type="line"/>
      <point x="71" y="64" type="line"/>
      <point x="77" y="47" type="line"/>
      <point x="85" y="31" type="line"/>
      <point x="94" y="16" type="line"/>
      <point x="103" y="1" type="line"/>
      <point x="114" y="-12" type="line"/>
      <point x="125" y="-25" type="line"/>
      <point x="137" y="-37" type="line" smooth="yes"/>
      <point x="138" y="-38"/>
      <point x="141" y="-40"/>
      <point x="142" y="-41" type="curve" smooth="yes"/>
      <point x="149" y="-47" type="line"/>
      <point x="162" y="-56" type="line"/>
      <point x="176" y="-65" type="line"/>
      <point x="189" y="-72" type="line"/>
      <point x="202" y="-78" type="line"/>
      <point x="215" y="-83" type="line"/>
      <point x="228" y="-87" type="line"/>
      <point x="241" y="-91" type="line"/>
      <point x="253" y="-93" type="line"/>
      <point x="265" y="-96" type="line"/>
      <point x="277" y="-97" type="line"/>
      <point x="288" y="-99" type="line"/>
      <point x="298" y="-100" type="line"/>
      <point x="308" y="-100" type="line"/>
      <point x="318" y="-101" type="line"/>
      <point x="327" y="-101" type="line"/>
      <point x="335" y="-101" type="line"/>
      <point x="343" y="-101" type="line"/>
    </contour>
    <contour>
      <point x="631" y="288" type="line"/>
      <point x="632" y="286" type="line"/>
      <point x="634" y="284" type="line"/>
      <point x="635" y="283" type="line"/>
    </contour>
    <contour>
      <point x="638" y="120" type="line"/>
      <point x="636" y="118" type="line"/>
      <point x="634" y="116" type="line"/>
      <point x="633" y="116" type="line"/>
    </contour>
    <contour>
      <point x="274" y="109" type="line"/>
      <point x="272" y="110" type="line"/>
      <point x="271" y="112" type="line"/>
      <point x="269" y="114" type="line"/>
      <point x="269" y="114" type="line"/>
    </contour>
  </outline>
</glyph>
<glyph name="percent" format="1">
  <advance width="900"/>
  <unicode hex="0025"/>
  <outline>
    <contour>
      <point x="552" y="-101" type="curve" smooth="yes"/>
      <point x="570" y="-101" type="line"/>
      <point x="591" y="-99" type="line"/>
      <point x="611" y="-97" type="line"/>
      <point x="630" y="-94" type="line"/>
      <point x="649" y="-91" type="line"/>
      <point x="667" y="-86" type="line"/>
      <point x="685" y="-80" type="line"/>
      <point x="702" y="-73" type="line"/>
      <point x="718" y="-66" type="line"/>
      <point x="734" y="-57" type="line"/>
      <point x="748" y="-47" type="line"/>
      <point x="762" y="-37" type="line"/>
      <point x="774" y="-26" type="line"/>
      <point x="786" y="-14" type="line"/>
      <point x="796" y="-1" type="line" smooth="yes"/>
      <point x="798" y="0"/>
      <point x="800" y="3"/>
      <point x="801" y="4" type="curve" smooth="yes"/>
      <point x="806" y="12" type="line"/>
      <point x="814" y="25" type="line"/>
      <point x="821" y="38" type="line"/>
      <point x="827" y="51" type="line"/>
      <point x="832" y="65" type="line"/>
      <point x="837" y="78" type="line"/>
      <point x="840" y="90" type="line"/>
      <point x="843" y="103" type="line"/>
      <point x="845" y="115" type="line"/>
      <point x="847" y="126" type="line"/>
      <point x="848" y="137" type="line"/>
      <point x="849" y="148" type="line"/>
      <point x="850" y="158" type="line"/>
      <point x="850" y="168" type="line"/>
      <point x="850" y="177" type="line"/>
      <point x="850" y="185" type="line"/>
      <point x="850" y="193" type="line"/>
      <point x="850" y="200" type="line" smooth="yes"/>
      <point x="849" y="255"/>
      <point x="805" y="299"/>
      <point x="750" y="299" type="curve" smooth="yes"/>
      <point x="550" y="299" type="line" smooth="yes"/>
      <point x="517" y="299"/>
      <point x="488" y="283"/>
      <point x="470" y="259" type="curve"/>
      <point x="830" y="739" type="line" smooth="yes"/>
      <point x="862" y="782"/>
      <point x="853" y="847"/>
      <point x="810" y="879" type="curve" smooth="yes"/>
      <point x="767" y="911"/>
      <point x="702" y="902"/>
      <point x="670" y="859" type="curve" smooth="yes"/>
      <point x="430" y="539" type="line"/>
      <point x="443" y="556"/>
      <point x="450" y="577"/>
      <point x="450" y="599" type="curve" smooth="yes"/>
      <point x="450" y="789" type="line" smooth="yes"/>
      <point x="450" y="791"/>
      <point x="450" y="793"/>
      <point x="450" y="794" type="curve"/>
      <point x="450" y="796"/>
      <point x="450" y="798"/>
      <point x="450" y="801" type="curve" smooth="yes"/>
      <point x="449" y="855"/>
      <point x="402" y="900"/>
      <point x="348" y="899" type="curve" smooth="yes"/>
      <point x="330" y="899" type="line"/>
      <point x="309" y="897" type="line"/>
      <point x="289" y="895" type="line"/>
      <point x="270" y="892" type="line"/>
      <point x="251" y="889" type="line"/>
      <point x="233" y="884" type="line"/>
      <point x="215" y="878" type="line"/>
      <point x="198" y="871" type="line"/>
      <point x="182" y="864" type="line"/>
      <point x="166" y="855" type="line"/>
      <point x="152" y="845" type="line"/>
      <point x="138" y="835" type="line"/>
      <point x="126" y="824" type="line"/>
      <point x="114" y="812" type="line"/>
      <point x="104" y="799" type="line" smooth="yes"/>
      <point x="102" y="798"/>
      <point x="100" y="795"/>
      <point x="99" y="794" type="curve" smooth="yes"/>
      <point x="94" y="786" type="line"/>
      <point x="86" y="773" type="line"/>
      <point x="79" y="760" type="line"/>
      <point x="73" y="747" type="line"/>
      <point x="68" y="733" type="line"/>
      <point x="63" y="720" type="line"/>
      <point x="60" y="708" type="line"/>
      <point x="57" y="695" type="line"/>
      <point x="55" y="683" type="line"/>
      <point x="53" y="672" type="line"/>
      <point x="52" y="661" type="line"/>
      <point x="51" y="650" type="line"/>
      <point x="50" y="640" type="line"/>
      <point x="50" y="630" type="line"/>
      <point x="50" y="621" type="line"/>
      <point x="50" y="613" type="line"/>
      <point x="50" y="605" type="line"/>
      <point x="50" y="598" type="line" smooth="yes"/>
      <point x="51" y="543"/>
      <point x="95" y="499"/>
      <point x="150" y="499" type="curve" smooth="yes"/>
      <point x="350" y="499" type="line" smooth="yes"/>
      <point x="383" y="499"/>
      <point x="412" y="515"/>
      <point x="430" y="539" type="curve"/>
      <point x="70" y="59" type="line" smooth="yes"/>
      <point x="38" y="16"/>
      <point x="47" y="-49"/>
      <point x="90" y="-81" type="curve" smooth="yes"/>
      <point x="133" y="-113"/>
      <point x="198" y="-104"/>
      <point x="230" y="-61" type="curve" smooth="yes"/>
      <point x="470" y="259" type="line"/>
      <point x="457" y="242"/>
      <point x="450" y="221"/>
      <point x="450" y="199" type="curve" smooth="yes"/>
      <point x="450" y="9" type="line" smooth="yes"/>
      <point x="450" y="7"/>
      <point x="450" y="5"/>
      <point x="450" y="4" type="curve"/>
      <point x="450" y="2"/>
      <point x="450" y="0"/>
      <point x="450" y="-3" type="curve" smooth="yes"/>
      <point x="451" y="-57"/>
      <point x="498" y="-102"/>
    </contour>
  </outline>
</glyph>
<glyph name="ampersand" format="1">
  <advance width="899"/>
  <unicode hex="0026"/>
  <outline>
    <contour>
      <point x="449" y="599" type="line"/>
      <point x="449" y="615" type="line"/>
      <point x="450" y="627" type="line"/>
      <point x="451" y="639" type="line"/>
      <point x="453" y="648" type="line"/>
      <point x="455" y="657" type="line"/>
      <point x="457" y="664" type="line"/>
      <point x="459" y="671" type="line"/>
      <point x="462" y="676" type="line"/>
      <point x="464" y="680" type="line"/>
      <point x="464" y="680" type="line"/>
      <point x="470" y="687" type="line"/>
      <point x="472" y="689" type="line"/>
      <point x="473" y="690" type="line"/>
      <point x="475" y="691" type="line"/>
      <point x="477" y="692" type="line"/>
      <point x="478" y="693" type="line"/>
      <point x="481" y="694" type="line"/>
      <point x="483" y="695" type="line"/>
      <point x="486" y="695" type="line"/>
      <point x="489" y="696" type="line"/>
      <point x="492" y="697" type="line"/>
      <point x="496" y="698" type="line"/>
      <point x="500" y="699" type="line"/>
      <point x="505" y="699" type="line"/>
      <point x="510" y="700" type="line"/>
      <point x="515" y="700" type="line"/>
      <point x="520" y="701" type="line"/>
      <point x="525" y="701" type="line"/>
      <point x="531" y="701" type="line"/>
      <point x="537" y="701" type="line"/>
      <point x="543" y="701" type="line"/>
      <point x="550" y="701" type="line"/>
      <point x="550" y="603" type="line"/>
      <point x="550" y="587" type="line"/>
      <point x="549" y="575" type="line"/>
      <point x="548" y="563" type="line"/>
      <point x="546" y="554" type="line"/>
      <point x="544" y="545" type="line"/>
      <point x="542" y="538" type="line"/>
      <point x="540" y="531" type="line"/>
      <point x="537" y="526" type="line"/>
      <point x="535" y="522" type="line"/>
      <point x="535" y="522" type="line"/>
      <point x="529" y="515" type="line"/>
      <point x="527" y="513" type="line"/>
      <point x="526" y="512" type="line"/>
      <point x="524" y="511" type="line"/>
      <point x="522" y="510" type="line"/>
      <point x="521" y="509" type="line"/>
      <point x="518" y="508" type="line"/>
      <point x="516" y="507" type="line"/>
      <point x="513" y="507" type="line"/>
      <point x="510" y="506" type="line"/>
      <point x="507" y="505" type="line"/>
      <point x="503" y="504" type="line"/>
      <point x="499" y="503" type="line"/>
      <point x="494" y="503" type="line"/>
      <point x="489" y="502" type="line"/>
      <point x="484" y="502" type="line"/>
      <point x="479" y="501" type="line"/>
      <point x="474" y="501" type="line"/>
      <point x="468" y="501" type="line"/>
      <point x="462" y="501" type="line"/>
      <point x="456" y="501" type="line"/>
      <point x="449" y="501" type="line"/>
    </contour>
    <contour>
      <point x="466" y="683" type="line"/>
      <point x="468" y="685" type="line"/>
      <point x="464" y="680" type="line"/>
    </contour>
    <contour>
      <point x="531" y="517" type="line"/>
      <point x="535" y="522" type="line"/>
      <point x="533" y="519" type="line"/>
    </contour>
    <contour>
      <point x="307" y="104" type="line"/>
      <point x="299" y="106" type="line"/>
      <point x="292" y="107" type="line"/>
      <point x="286" y="109" type="line"/>
      <point x="281" y="111" type="line"/>
      <point x="277" y="113" type="line"/>
      <point x="273" y="114" type="line"/>
      <point x="271" y="116" type="line"/>
      <point x="269" y="117" type="line"/>
      <point x="267" y="118" type="line"/>
      <point x="261" y="124" type="line"/>
      <point x="260" y="126" type="line"/>
      <point x="258" y="129" type="line"/>
      <point x="257" y="131" type="line"/>
      <point x="256" y="135" type="line"/>
      <point x="255" y="138" type="line"/>
      <point x="254" y="142" type="line"/>
      <point x="253" y="147" type="line"/>
      <point x="252" y="152" type="line"/>
      <point x="252" y="157" type="line"/>
      <point x="251" y="162" type="line"/>
      <point x="251" y="168" type="line"/>
      <point x="250" y="174" type="line"/>
      <point x="250" y="180" type="line"/>
      <point x="250" y="186" type="line"/>
      <point x="250" y="192" type="line"/>
      <point x="250" y="197" type="line"/>
      <point x="250" y="211" type="line"/>
      <point x="251" y="223" type="line"/>
      <point x="252" y="234" type="line"/>
      <point x="253" y="243" type="line"/>
      <point x="255" y="252" type="line"/>
      <point x="257" y="259" type="line"/>
      <point x="258" y="265" type="line"/>
      <point x="260" y="270" type="line"/>
      <point x="262" y="274" type="line"/>
      <point x="263" y="277" type="line"/>
      <point x="269" y="285" type="line"/>
      <point x="265" y="279" type="line"/>
      <point x="266" y="282" type="line"/>
      <point x="268" y="284" type="line"/>
      <point x="269" y="285" type="line"/>
      <point x="270" y="287" type="line"/>
      <point x="272" y="288" type="line"/>
      <point x="274" y="290" type="line"/>
      <point x="276" y="291" type="line"/>
      <point x="279" y="292" type="line"/>
      <point x="282" y="294" type="line"/>
      <point x="285" y="295" type="line"/>
      <point x="289" y="296" type="line"/>
      <point x="293" y="297" type="line"/>
      <point x="298" y="298" type="line"/>
      <point x="303" y="299" type="line"/>
      <point x="308" y="299" type="line"/>
      <point x="313" y="300" type="line"/>
      <point x="319" y="300" type="line"/>
      <point x="325" y="301" type="line"/>
      <point x="331" y="301" type="line"/>
      <point x="337" y="301" type="line"/>
      <point x="343" y="301" type="line"/>
      <point x="400" y="301" type="line"/>
      <point x="447" y="238" type="line"/>
      <point x="313" y="103" type="line"/>
    </contour>
    <contour>
      <point x="265" y="119" type="line"/>
      <point x="264" y="121" type="line"/>
      <point x="262" y="122" type="line"/>
      <point x="261" y="124" type="line"/>
      <point x="261" y="124" type="line"/>
    </contour>
    <contour>
      <point x="423" y="-70" type="curve" smooth="yes"/>
      <point x="568" y="77" type="line"/>
      <point x="670" y="-59" type="line" smooth="yes"/>
      <point x="702" y="-102"/>
      <point x="767" y="-111"/>
      <point x="810" y="-79" type="curve" smooth="yes"/>
      <point x="853" y="-47"/>
      <point x="862" y="18"/>
      <point x="830" y="61" type="curve" smooth="yes"/>
      <point x="711" y="220" type="line"/>
      <point x="813" y="322" type="line"/>
      <point x="820" y="329" type="line" smooth="yes"/>
      <point x="858" y="368"/>
      <point x="858" y="433"/>
      <point x="820" y="471" type="curve" smooth="yes"/>
      <point x="798" y="493"/>
      <point x="767" y="502"/>
      <point x="738" y="499" type="curve"/>
      <point x="740" y="504" type="line"/>
      <point x="743" y="523" type="line"/>
      <point x="746" y="542" type="line"/>
      <point x="748" y="562" type="line"/>
      <point x="750" y="583" type="line"/>
      <point x="750" y="603" type="line"/>
      <point x="750" y="801" type="line" smooth="yes"/>
      <point x="750" y="856"/>
      <point x="705" y="901"/>
      <point x="650" y="901" type="curve" smooth="yes"/>
      <point x="549" y="901" type="line"/>
      <point x="542" y="901" type="line"/>
      <point x="534" y="901" type="line"/>
      <point x="526" y="901" type="line"/>
      <point x="516" y="901" type="line"/>
      <point x="507" y="900" type="line"/>
      <point x="497" y="899" type="line"/>
      <point x="486" y="898" type="line"/>
      <point x="475" y="897" type="line"/>
      <point x="463" y="895" type="line"/>
      <point x="451" y="893" type="line"/>
      <point x="439" y="890" type="line"/>
      <point x="426" y="886" type="line"/>
      <point x="413" y="882" type="line"/>
      <point x="400" y="877" type="line"/>
      <point x="387" y="870" type="line"/>
      <point x="374" y="863" type="line"/>
      <point x="361" y="855" type="line"/>
      <point x="348" y="845" type="line"/>
      <point x="335" y="835" type="line"/>
      <point x="324" y="823" type="line"/>
      <point x="312" y="811" type="line"/>
      <point x="306" y="803" type="line" smooth="yes"/>
      <point x="305" y="801"/>
      <point x="303" y="799"/>
      <point x="302" y="797" type="curve" smooth="yes"/>
      <point x="293" y="782" type="line"/>
      <point x="284" y="767" type="line"/>
      <point x="276" y="751" type="line"/>
      <point x="270" y="734" type="line"/>
      <point x="264" y="716" type="line"/>
      <point x="259" y="698" type="line"/>
      <point x="256" y="679" type="line"/>
      <point x="253" y="660" type="line"/>
      <point x="251" y="640" type="line"/>
      <point x="249" y="619" type="line"/>
      <point x="249" y="599" type="line"/>
      <point x="249" y="492" type="line"/>
      <point x="244" y="491" type="line"/>
      <point x="232" y="488" type="line"/>
      <point x="219" y="484" type="line"/>
      <point x="206" y="479" type="line"/>
      <point x="193" y="473" type="line"/>
      <point x="180" y="466" type="line"/>
      <point x="167" y="459" type="line"/>
      <point x="154" y="450" type="line"/>
      <point x="142" y="440" type="line"/>
      <point x="130" y="429" type="line"/>
      <point x="118" y="416" type="line"/>
      <point x="107" y="403" type="line" smooth="yes"/>
      <point x="106" y="401"/>
      <point x="104" y="399"/>
      <point x="103" y="397" type="curve" smooth="yes"/>
      <point x="97" y="388" type="line"/>
      <point x="88" y="373" type="line"/>
      <point x="80" y="357" type="line"/>
      <point x="73" y="340" type="line"/>
      <point x="67" y="322" type="line"/>
      <point x="62" y="304" type="line"/>
      <point x="57" y="284" type="line"/>
      <point x="54" y="265" type="line"/>
      <point x="52" y="244" type="line"/>
      <point x="51" y="223" type="line"/>
      <point x="50" y="201" type="line"/>
      <point x="50" y="192" type="line"/>
      <point x="50" y="185" type="line"/>
      <point x="50" y="177" type="line"/>
      <point x="50" y="168" type="line"/>
      <point x="51" y="159" type="line"/>
      <point x="51" y="149" type="line"/>
      <point x="52" y="139" type="line"/>
      <point x="54" y="128" type="line"/>
      <point x="55" y="117" type="line"/>
      <point x="57" y="105" type="line"/>
      <point x="60" y="93" type="line"/>
      <point x="63" y="81" type="line"/>
      <point x="67" y="68" type="line"/>
      <point x="72" y="55" type="line"/>
      <point x="78" y="42" type="line"/>
      <point x="85" y="29" type="line"/>
      <point x="93" y="16" type="line"/>
      <point x="102" y="4" type="line"/>
      <point x="112" y="-9" type="line" smooth="yes"/>
      <point x="113" y="-10"/>
      <point x="115" y="-13"/>
      <point x="117" y="-14" type="curve" smooth="yes"/>
      <point x="123" y="-21" type="line"/>
      <point x="135" y="-32" type="line"/>
      <point x="149" y="-43" type="line"/>
      <point x="163" y="-53" type="line"/>
      <point x="179" y="-62" type="line"/>
      <point x="195" y="-70" type="line"/>
      <point x="212" y="-77" type="line"/>
      <point x="230" y="-83" type="line"/>
      <point x="248" y="-88" type="line"/>
      <point x="267" y="-92" type="line"/>
      <point x="287" y="-95" type="line"/>
      <point x="307" y="-97" type="line"/>
      <point x="328" y="-98" type="line"/>
      <point x="350" y="-99" type="line" smooth="yes"/>
      <point x="374" y="-99"/>
      <point x="406" y="-86"/>
    </contour>
  </outline>
</glyph>
<glyph name="asterisk" format="1">
  <advance width="700"/>
  <unicode hex="002A"/>
  <outline>
    <contour>
      <point x="292" y="245" type="curve" smooth="yes"/>
      <point x="353" y="332" type="line"/>
      <point x="420" y="242" type="line" smooth="yes"/>
      <point x="452" y="199"/>
      <point x="517" y="190"/>
      <point x="560" y="222" type="curve" smooth="yes"/>
      <point x="603" y="254"/>
      <point x="612" y="319"/>
      <point x="580" y="362" type="curve" smooth="yes"/>
      <point x="550" y="402" type="line" smooth="yes"/>
      <point x="604" y="402"/>
      <point x="650" y="448"/>
      <point x="650" y="502" type="curve" smooth="yes"/>
      <point x="650" y="556"/>
      <point x="604" y="602"/>
      <point x="550" y="602" type="curve" smooth="yes"/>
      <point x="450" y="602" type="line"/>
      <point x="450" y="702" type="line" smooth="yes"/>
      <point x="450" y="756"/>
      <point x="404" y="802"/>
      <point x="350" y="802" type="curve" smooth="yes"/>
      <point x="296" y="802"/>
      <point x="250" y="756"/>
      <point x="250" y="702" type="curve" smooth="yes"/>
      <point x="250" y="602" type="line"/>
      <point x="150" y="602" type="line" smooth="yes"/>
      <point x="96" y="602"/>
      <point x="50" y="556"/>
      <point x="50" y="502" type="curve" smooth="yes"/>
      <point x="50" y="448"/>
      <point x="96" y="402"/>
      <point x="150" y="402" type="curve" smooth="yes"/>
      <point x="158" y="402" type="line"/>
      <point x="134" y="368" type="line"/>
      <point x="128" y="359" type="line" smooth="yes"/>
      <point x="97" y="315"/>
      <point x="108" y="251"/>
      <point x="153" y="220" type="curve" smooth="yes"/>
      <point x="197" y="189"/>
      <point x="261" y="200"/>
    </contour>
  </outline>
</glyph>
<glyph name="comma" format="1">
  <advance width="400"/>
  <unicode hex="002C"/>
  <outline>
    <contour>
      <point x="150" y="-158" type="curve" smooth="yes"/>
      <point x="250" y="-158" type="line" smooth="yes"/>
      <point x="305" y="-158"/>
      <point x="350" y="-113"/>
      <point x="350" y="-58" type="curve" smooth="yes"/>
      <point x="350" y="142" type="line" smooth="yes"/>
      <point x="350" y="196"/>
      <point x="304" y="242"/>
      <point x="250" y="242" type="curve" smooth="yes"/>
      <point x="196" y="242"/>
      <point x="150" y="196"/>
      <point x="150" y="142" type="curve" smooth="yes"/>
      <point x="150" y="42" type="line" smooth="yes"/>
      <point x="96" y="42"/>
      <point x="50" y="-4"/>
      <point x="50" y="-58" type="curve" smooth="yes"/>
      <point x="50" y="-112"/>
      <point x="96" y="-158"/>
    </contour>
  </outline>
</glyph>
<glyph name="hyphen" format="1">
  <advance width="500"/>
  <unicode hex="002D"/>
  <outline>
    <contour>
      <point x="150" y="196" type="curve" smooth="yes"/>
      <point x="350" y="196" type="line" smooth="yes"/>
      <point x="404" y="196"/>
      <point x="450" y="242"/>
      <point x="450" y="296" type="curve" smooth="yes"/>
      <point x="450" y="350"/>
      <point x="404" y="396"/>
      <point x="350" y="396" type="curve" smooth="yes"/>
      <point x="150" y="396" type="line" smooth="yes"/>
      <point x="96" y="396"/>
      <point x="50" y="350"/>
      <point x="50" y="296" type="curve" smooth="yes"/>
      <point x="50" y="242"/>
      <point x="96" y="196"/>
    </contour>
  </outline>
</glyph>
<glyph name="period" format="1">
  <advance width="300"/>
  <unicode hex="002E"/>
  <outline>
    <contour>
      <point x="150" y="110" type="curve" smooth="yes"/>
      <point x="96" y="110"/>
      <point x="50" y="64"/>
      <point x="50" y="10" type="curve" smooth="yes"/>
      <point x="50" y="0" type="line" smooth="yes"/>
      <point x="50" y="-54"/>
      <point x="96" y="-100"/>
      <point x="150" y="-100" type="curve" smooth="yes"/>
      <point x="204" y="-100"/>
      <point x="250" y="-54"/>
      <point x="250" y="0" type="curve" smooth="yes"/>
      <point x="250" y="10" type="line" smooth="yes"/>
      <point x="250" y="64"/>
      <point x="204" y="110"/>
    </contour>
  </outline>
</glyph>
<glyph name="zero" format="1">
  <advance width="900"/>
  <unicode hex="0030"/>
  <outline>
    <contour>
      <point x="350" y="-98" type="line" smooth="yes"/>
      <point x="552" y="-98" type="line"/>
      <point x="572" y="-98" type="line"/>
      <point x="593" y="-96" type="line"/>
      <point x="613" y="-94" type="line"/>
      <point x="632" y="-91" type="line"/>
      <point x="651" y="-88" type="line"/>
      <point x="670" y="-83" type="line"/>
      <point x="687" y="-77" type="line"/>
      <point x="704" y="-70" type="line"/>
      <point x="720" y="-63" type="line"/>
      <point x="735" y="-54" type="line"/>
      <point x="750" y="-44" type="line"/>
      <point x="764" y="-34" type="line" smooth="yes"/>
      <point x="765" y="-33"/>
      <point x="768" y="-30"/>
      <point x="769" y="-29" type="curve" smooth="yes"/>
      <point x="776" y="-23" type="line"/>
      <point x="788" y="-10" type="line"/>
      <point x="798" y="2" type="line"/>
      <point x="807" y="15" type="line"/>
      <point x="815" y="29" type="line"/>
      <point x="822" y="42" type="line"/>
      <point x="828" y="55" type="line"/>
      <point x="833" y="68" type="line"/>
      <point x="837" y="81" type="line"/>
      <point x="841" y="94" type="line"/>
      <point x="843" y="106" type="line"/>
      <point x="845" y="118" type="line"/>
      <point x="847" y="130" type="line"/>
      <point x="848" y="141" type="line"/>
      <point x="849" y="151" type="line"/>
      <point x="849" y="161" type="line"/>
      <point x="850" y="171" type="line"/>
      <point x="850" y="180" type="line"/>
      <point x="850" y="188" type="line"/>
      <point x="850" y="195" type="line"/>
      <point x="850" y="202" type="line"/>
      <point x="850" y="212" type="line"/>
      <point x="850" y="602" type="line"/>
      <point x="850" y="615" type="line"/>
      <point x="848" y="630" type="line"/>
      <point x="847" y="639" type="line"/>
      <point x="846" y="649" type="line"/>
      <point x="844" y="659" type="line"/>
      <point x="842" y="669" type="line"/>
      <point x="839" y="681" type="line"/>
      <point x="836" y="693" type="line"/>
      <point x="832" y="705" type="line"/>
      <point x="827" y="718" type="line"/>
      <point x="821" y="731" type="line"/>
      <point x="815" y="745" type="line"/>
      <point x="808" y="759" type="line"/>
      <point x="799" y="773" type="line"/>
      <point x="790" y="787" type="line"/>
      <point x="779" y="801" type="line"/>
      <point x="767" y="814" type="line"/>
      <point x="754" y="828" type="line" smooth="yes"/>
      <point x="752" y="829"/>
      <point x="750" y="831"/>
      <point x="748" y="832" type="curve" smooth="yes"/>
      <point x="739" y="840" type="line"/>
      <point x="723" y="852" type="line"/>
      <point x="705" y="863" type="line" smooth="yes"/>
      <point x="704" y="864"/>
      <point x="701" y="866"/>
      <point x="699" y="867" type="curve" smooth="yes"/>
      <point x="687" y="873" type="line"/>
      <point x="667" y="881" type="line" smooth="yes"/>
      <point x="665" y="882"/>
      <point x="661" y="883"/>
      <point x="659" y="884" type="curve" smooth="yes"/>
      <point x="645" y="889" type="line"/>
      <point x="623" y="894" type="line"/>
      <point x="600" y="898" type="line"/>
      <point x="576" y="901" type="line"/>
      <point x="551" y="902" type="line"/>
      <point x="538" y="902" type="line"/>
      <point x="348" y="902" type="line"/>
      <point x="328" y="902" type="line"/>
      <point x="307" y="900" type="line"/>
      <point x="287" y="898" type="line"/>
      <point x="267" y="895" type="line"/>
      <point x="249" y="892" type="line"/>
      <point x="230" y="887" type="line"/>
      <point x="213" y="881" type="line"/>
      <point x="196" y="874" type="line"/>
      <point x="180" y="866" type="line"/>
      <point x="164" y="858" type="line"/>
      <point x="150" y="848" type="line"/>
      <point x="136" y="837" type="line" smooth="yes"/>
      <point x="135" y="836"/>
      <point x="132" y="834"/>
      <point x="130" y="833" type="curve" smooth="yes"/>
      <point x="124" y="826" type="line"/>
      <point x="112" y="814" type="line"/>
      <point x="102" y="801" type="line"/>
      <point x="92" y="788" type="line"/>
      <point x="84" y="775" type="line"/>
      <point x="78" y="762" type="line"/>
      <point x="72" y="748" type="line"/>
      <point x="67" y="735" type="line"/>
      <point x="63" y="722" type="line"/>
      <point x="59" y="709" type="line"/>
      <point x="57" y="697" type="line"/>
      <point x="55" y="685" type="line"/>
      <point x="53" y="674" type="line"/>
      <point x="52" y="663" type="line"/>
      <point x="51" y="652" type="line"/>
      <point x="51" y="642" type="line"/>
      <point x="50" y="633" type="line"/>
      <point x="50" y="624" type="line"/>
      <point x="50" y="616" type="line"/>
      <point x="50" y="609" type="line"/>
      <point x="50" y="602" type="line"/>
      <point x="50" y="592" type="line"/>
      <point x="50" y="202" type="line"/>
      <point x="50" y="195" type="line"/>
      <point x="50" y="188" type="line"/>
      <point x="50" y="180" type="line"/>
      <point x="50" y="171" type="line"/>
      <point x="51" y="162" type="line"/>
      <point x="51" y="152" type="line"/>
      <point x="52" y="142" type="line"/>
      <point x="54" y="131" type="line"/>
      <point x="55" y="120" type="line"/>
      <point x="57" y="108" type="line"/>
      <point x="60" y="96" type="line"/>
      <point x="63" y="84" type="line"/>
      <point x="67" y="71" type="line"/>
      <point x="72" y="58" type="line"/>
      <point x="78" y="45" type="line"/>
      <point x="85" y="32" type="line"/>
      <point x="92" y="19" type="line"/>
      <point x="101" y="6" type="line"/>
      <point x="111" y="-6" type="line"/>
      <point x="122" y="-18" type="line"/>
      <point x="135" y="-30" type="line"/>
      <point x="148" y="-41" type="line" smooth="yes"/>
      <point x="150" y="-42"/>
      <point x="152" y="-44"/>
      <point x="154" y="-45" type="curve" smooth="yes"/>
      <point x="163" y="-51" type="line"/>
      <point x="178" y="-60" type="line"/>
      <point x="194" y="-68" type="line"/>
      <point x="211" y="-75" type="line"/>
      <point x="229" y="-81" type="line"/>
      <point x="247" y="-86" type="line"/>
      <point x="267" y="-91" type="line"/>
      <point x="286" y="-94" type="line"/>
      <point x="307" y="-96" type="line"/>
      <point x="328" y="-97" type="line"/>
      <point x="346" y="-98" type="line"/>
    </contour>
    <contour>
      <point x="250" y="592" type="line"/>
      <point x="250" y="602" type="line"/>
      <point x="250" y="609" type="line"/>
      <point x="250" y="615" type="line"/>
      <point x="250" y="621" type="line"/>
      <point x="250" y="627" type="line"/>
      <point x="250" y="632" type="line"/>
      <point x="251" y="638" type="line"/>
      <point x="251" y="643" type="line"/>
      <point x="251" y="648" type="line"/>
      <point x="252" y="652" type="line"/>
      <point x="252" y="657" type="line"/>
      <point x="253" y="660" type="line"/>
      <point x="254" y="664" type="line"/>
      <point x="255" y="667" type="line"/>
      <point x="256" y="670" type="line"/>
      <point x="256" y="672" type="line"/>
      <point x="257" y="674" type="line"/>
      <point x="258" y="676" type="line"/>
      <point x="259" y="677" type="line"/>
      <point x="259" y="679" type="line"/>
      <point x="260" y="680" type="line"/>
      <point x="267" y="686" type="line"/>
      <point x="268" y="687" type="line"/>
      <point x="272" y="689" type="line"/>
      <point x="277" y="692" type="line"/>
      <point x="283" y="694" type="line"/>
      <point x="290" y="696" type="line"/>
      <point x="299" y="698" type="line"/>
      <point x="308" y="699" type="line"/>
      <point x="320" y="701" type="line"/>
      <point x="332" y="702" type="line"/>
      <point x="348" y="702" type="line"/>
      <point x="538" y="702" type="line"/>
      <point x="545" y="702" type="line"/>
      <point x="554" y="702" type="line"/>
      <point x="250" y="301" type="line"/>
    </contour>
    <contour>
      <point x="262" y="682" type="line"/>
      <point x="263" y="683" type="line"/>
      <point x="265" y="685" type="line"/>
      <point x="266" y="686" type="line"/>
    </contour>
    <contour>
      <point x="650" y="212" type="line"/>
      <point x="650" y="202" type="line"/>
      <point x="650" y="195" type="line"/>
      <point x="650" y="189" type="line"/>
      <point x="650" y="183" type="line"/>
      <point x="650" y="177" type="line"/>
      <point x="650" y="171" type="line"/>
      <point x="649" y="166" type="line"/>
      <point x="649" y="161" type="line"/>
      <point x="649" y="156" type="line"/>
      <point x="648" y="151" type="line"/>
      <point x="648" y="147" type="line"/>
      <point x="647" y="143" type="line"/>
      <point x="646" y="140" type="line"/>
      <point x="645" y="137" type="line"/>
      <point x="645" y="134" type="line"/>
      <point x="644" y="132" type="line"/>
      <point x="643" y="130" type="line"/>
      <point x="642" y="128" type="line"/>
      <point x="642" y="127" type="line"/>
      <point x="641" y="125" type="line"/>
      <point x="640" y="124" type="line"/>
      <point x="634" y="118" type="line"/>
      <point x="632" y="117" type="line"/>
      <point x="628" y="115" type="line"/>
      <point x="623" y="112" type="line"/>
      <point x="617" y="110" type="line"/>
      <point x="610" y="108" type="line"/>
      <point x="602" y="106" type="line"/>
      <point x="592" y="104" type="line"/>
      <point x="581" y="103" type="line"/>
      <point x="568" y="102" type="line"/>
      <point x="552" y="102" type="line"/>
      <point x="353" y="102" type="line"/>
      <point x="350" y="102" type="line"/>
      <point x="650" y="497" type="line"/>
    </contour>
    <contour>
      <point x="639" y="122" type="line"/>
      <point x="637" y="121" type="line"/>
      <point x="635" y="119" type="line"/>
      <point x="634" y="118" type="line"/>
    </contour>
  </outline>
</glyph>
<glyph name="one" format="1">
  <advance width="900"/>
  <unicode hex="0031"/>
  <outline>
    <contour>
      <point x="326" y="711" type="line"/>
      <point x="331" y="716" type="line"/>
      <point x="331" y="716" type="line"/>
      <point x="329" y="714" type="line"/>
      <point x="328" y="712" type="line"/>
    </contour>
    <contour>
      <point x="332" y="116" type="line"/>
      <point x="330" y="115" type="line"/>
      <point x="329" y="113" type="line"/>
      <point x="327" y="112" type="line"/>
    </contour>
    <contour>
      <point x="150" y="-99" type="curve" smooth="yes"/>
      <point x="750" y="-99" type="line" smooth="yes"/>
      <point x="804" y="-99"/>
      <point x="850" y="-53"/>
      <point x="850" y="1" type="curve" smooth="yes"/>
      <point x="850" y="55"/>
      <point x="804" y="101"/>
      <point x="750" y="101" type="curve" smooth="yes"/>
      <point x="539" y="101" type="line"/>
      <point x="542" y="116" type="line"/>
      <point x="546" y="135" type="line"/>
      <point x="548" y="156" type="line"/>
      <point x="549" y="177" type="line"/>
      <point x="550" y="199" type="line"/>
      <point x="550" y="211" type="line"/>
      <point x="550" y="791" type="line" smooth="yes"/>
      <point x="550" y="922"/>
      <point x="356" y="926"/>
      <point x="350" y="795" type="curve" smooth="yes"/>
      <point x="350" y="788" type="line"/>
      <point x="349" y="773" type="line"/>
      <point x="348" y="761" type="line"/>
      <point x="346" y="752" type="line"/>
      <point x="344" y="743" type="line"/>
      <point x="342" y="736" type="line"/>
      <point x="340" y="730" type="line"/>
      <point x="337" y="725" type="line"/>
      <point x="335" y="721" type="line"/>
      <point x="333" y="718" type="line"/>
      <point x="331" y="716" type="line"/>
      <point x="325" y="710" type="line"/>
      <point x="323" y="710" type="line"/>
      <point x="321" y="709" type="line"/>
      <point x="319" y="708" type="line"/>
      <point x="317" y="707" type="line"/>
      <point x="314" y="706" type="line"/>
      <point x="311" y="705" type="line"/>
      <point x="308" y="705" type="line"/>
      <point x="304" y="704" type="line"/>
      <point x="300" y="703" type="line"/>
      <point x="295" y="703" type="line"/>
      <point x="290" y="702" type="line"/>
      <point x="285" y="702" type="line"/>
      <point x="280" y="701" type="line"/>
      <point x="274" y="701" type="line"/>
      <point x="268" y="701" type="line"/>
      <point x="262" y="701" type="line"/>
      <point x="256" y="701" type="line"/>
      <point x="160" y="701" type="line"/>
      <point x="150" y="701" type="line" smooth="yes"/>
      <point x="96" y="701"/>
      <point x="50" y="655"/>
      <point x="50" y="601" type="curve" smooth="yes"/>
      <point x="50" y="547"/>
      <point x="96" y="501"/>
      <point x="150" y="501" type="curve" smooth="yes"/>
      <point x="257" y="501" type="line"/>
      <point x="265" y="501" type="line"/>
      <point x="273" y="501" type="line"/>
      <point x="282" y="501" type="line"/>
      <point x="292" y="502" type="line"/>
      <point x="302" y="502" type="line"/>
      <point x="312" y="503" type="line"/>
      <point x="323" y="505" type="line"/>
      <point x="335" y="506" type="line"/>
      <point x="347" y="509" type="line"/>
      <point x="350" y="509" type="line"/>
      <point x="350" y="211" type="line"/>
      <point x="350" y="203" type="line"/>
      <point x="350" y="189" type="line"/>
      <point x="349" y="177" type="line"/>
      <point x="348" y="166" type="line"/>
      <point x="347" y="157" type="line"/>
      <point x="345" y="149" type="line"/>
      <point x="344" y="142" type="line"/>
      <point x="342" y="136" type="line"/>
      <point x="340" y="131" type="line"/>
      <point x="338" y="127" type="line"/>
      <point x="337" y="124" type="line"/>
      <point x="336" y="121" type="line"/>
      <point x="334" y="119" type="line"/>
      <point x="333" y="118" type="line"/>
      <point x="327" y="112" type="line"/>
      <point x="325" y="111" type="line"/>
      <point x="322" y="109" type="line"/>
      <point x="319" y="108" type="line"/>
      <point x="316" y="107" type="line"/>
      <point x="312" y="106" type="line"/>
      <point x="308" y="105" type="line"/>
      <point x="303" y="104" type="line"/>
      <point x="298" y="103" type="line"/>
      <point x="293" y="102" type="line"/>
      <point x="287" y="102" type="line"/>
      <point x="282" y="102" type="line"/>
      <point x="276" y="101" type="line"/>
      <point x="270" y="101" type="line"/>
      <point x="263" y="101" type="line"/>
      <point x="257" y="101" type="line"/>
      <point x="250" y="101" type="line" smooth="yes"/>
      <point x="150" y="101" type="line" smooth="yes"/>
      <point x="96" y="101"/>
      <point x="50" y="55"/>
      <point x="50" y="1" type="curve" smooth="yes"/>
      <point x="50" y="-53"/>
      <point x="96" y="-99"/>
    </contour>
  </outline>
</glyph>
<glyph name="two" format="1">
  <advance width="900"/>
  <unicode hex="0032"/>
  <outline>
    <contour>
      <point x="592" y="694" type="line"/>
      <point x="598" y="692" type="line"/>
      <point x="599" y="692" type="line"/>
    </contour>
    <contour>
      <point x="603" y="690" type="line"/>
      <point x="608" y="688" type="line"/>
      <point x="609" y="687" type="line"/>
    </contour>
    <contour>
      <point x="268" y="685" type="line"/>
      <point x="270" y="686" type="line"/>
      <point x="271" y="688" type="line"/>
      <point x="273" y="689" type="line"/>
    </contour>
    <contour>
      <point x="612" y="685" type="line"/>
      <point x="616" y="682" type="line"/>
      <point x="617" y="681" type="line"/>
    </contour>
    <contour>
      <point x="632" y="515" type="line"/>
      <point x="630" y="514" type="line"/>
      <point x="629" y="512" type="line"/>
      <point x="627" y="511" type="line"/>
    </contour>
    <contour>
      <point x="750" y="-100" type="line" smooth="yes"/>
      <point x="804" y="-100"/>
      <point x="850" y="-54"/>
      <point x="850" y="0" type="curve" smooth="yes"/>
      <point x="850" y="54"/>
      <point x="804" y="100"/>
      <point x="750" y="100" type="curve" smooth="yes"/>
      <point x="250" y="100" type="line"/>
      <point x="250" y="200" type="line"/>
      <point x="250" y="216" type="line"/>
      <point x="251" y="228" type="line"/>
      <point x="252" y="240" type="line"/>
      <point x="254" y="249" type="line"/>
      <point x="256" y="258" type="line"/>
      <point x="258" y="265" type="line"/>
      <point x="260" y="271" type="line"/>
      <point x="263" y="276" type="line"/>
      <point x="265" y="280" type="line"/>
      <point x="267" y="283" type="line"/>
      <point x="269" y="285" type="line"/>
      <point x="275" y="291" type="line"/>
      <point x="277" y="291" type="line"/>
      <point x="279" y="292" type="line"/>
      <point x="281" y="293" type="line"/>
      <point x="283" y="294" type="line"/>
      <point x="286" y="295" type="line"/>
      <point x="289" y="296" type="line"/>
      <point x="292" y="296" type="line"/>
      <point x="296" y="297" type="line"/>
      <point x="300" y="298" type="line"/>
      <point x="305" y="298" type="line"/>
      <point x="310" y="299" type="line"/>
      <point x="315" y="299" type="line"/>
      <point x="320" y="300" type="line"/>
      <point x="326" y="300" type="line"/>
      <point x="332" y="300" type="line"/>
      <point x="338" y="300" type="line"/>
      <point x="344" y="300" type="line"/>
      <point x="557" y="300" type="line"/>
      <point x="564" y="300" type="line"/>
      <point x="572" y="300" type="line"/>
      <point x="580" y="300" type="line"/>
      <point x="590" y="301" type="line"/>
      <point x="599" y="301" type="line"/>
      <point x="610" y="302" type="line"/>
      <point x="620" y="303" type="line"/>
      <point x="631" y="305" type="line"/>
      <point x="643" y="307" type="line"/>
      <point x="655" y="309" type="line"/>
      <point x="667" y="312" type="line"/>
      <point x="680" y="316" type="line"/>
      <point x="693" y="321" type="line"/>
      <point x="706" y="327" type="line"/>
      <point x="719" y="333" type="line"/>
      <point x="732" y="341" type="line"/>
      <point x="745" y="350" type="line"/>
      <point x="758" y="360" type="line" smooth="yes"/>
      <point x="759" y="361"/>
      <point x="762" y="363"/>
      <point x="763" y="364" type="curve" smooth="yes"/>
      <point x="770" y="371" type="line"/>
      <point x="781" y="383" type="line"/>
      <point x="792" y="396" type="line"/>
      <point x="802" y="411" type="line"/>
      <point x="812" y="426" type="line"/>
      <point x="820" y="442" type="line"/>
      <point x="827" y="459" type="line"/>
      <point x="833" y="477" type="line"/>
      <point x="838" y="495" type="line"/>
      <point x="842" y="515" type="line"/>
      <point x="846" y="534" type="line"/>
      <point x="848" y="555" type="line"/>
      <point x="849" y="576" type="line"/>
      <point x="850" y="598" type="line"/>
      <point x="850" y="612" type="line"/>
      <point x="848" y="627" type="line"/>
      <point x="847" y="636" type="line"/>
      <point x="846" y="646" type="line"/>
      <point x="844" y="656" type="line"/>
      <point x="842" y="666" type="line"/>
      <point x="840" y="678" type="line"/>
      <point x="836" y="690" type="line"/>
      <point x="833" y="702" type="line"/>
      <point x="828" y="715" type="line"/>
      <point x="823" y="728" type="line"/>
      <point x="816" y="742" type="line"/>
      <point x="809" y="756" type="line"/>
      <point x="801" y="770" type="line"/>
      <point x="792" y="784" type="line"/>
      <point x="781" y="798" type="line"/>
      <point x="769" y="812" type="line"/>
      <point x="756" y="825" type="line"/>
      <point x="741" y="838" type="line" smooth="yes"/>
      <point x="739" y="839"/>
      <point x="737" y="841"/>
      <point x="735" y="843" type="curve" smooth="yes"/>
      <point x="725" y="850" type="line"/>
      <point x="707" y="861" type="line" smooth="yes"/>
      <point x="706" y="862"/>
      <point x="703" y="864"/>
      <point x="701" y="865" type="curve" smooth="yes"/>
      <point x="689" y="871" type="line"/>
      <point x="669" y="879" type="line" smooth="yes"/>
      <point x="667" y="880"/>
      <point x="663" y="881"/>
      <point x="661" y="882" type="curve" smooth="yes"/>
      <point x="647" y="887" type="line"/>
      <point x="625" y="892" type="line"/>
      <point x="602" y="896" type="line"/>
      <point x="578" y="899" type="line"/>
      <point x="553" y="900" type="line"/>
      <point x="540" y="900" type="line"/>
      <point x="343" y="900" type="line"/>
      <point x="336" y="900" type="line"/>
      <point x="328" y="900" type="line"/>
      <point x="320" y="900" type="line"/>
      <point x="310" y="899" type="line"/>
      <point x="301" y="899" type="line"/>
      <point x="290" y="898" type="line"/>
      <point x="280" y="897" type="line"/>
      <point x="269" y="895" type="line"/>
      <point x="257" y="893" type="line"/>
      <point x="245" y="891" type="line"/>
      <point x="233" y="888" type="line"/>
      <point x="220" y="884" type="line"/>
      <point x="207" y="879" type="line"/>
      <point x="194" y="873" type="line"/>
      <point x="181" y="867" type="line"/>
      <point x="168" y="859" type="line"/>
      <point x="155" y="850" type="line"/>
      <point x="142" y="840" type="line" smooth="yes"/>
      <point x="141" y="839"/>
      <point x="138" y="837"/>
      <point x="137" y="836" type="curve" smooth="yes"/>
      <point x="130" y="829" type="line"/>
      <point x="119" y="817" type="line"/>
      <point x="108" y="804" type="line"/>
      <point x="98" y="789" type="line"/>
      <point x="88" y="774" type="line"/>
      <point x="80" y="758" type="line"/>
      <point x="73" y="741" type="line"/>
      <point x="67" y="723" type="line"/>
      <point x="62" y="705" type="line"/>
      <point x="58" y="685" type="line"/>
      <point x="54" y="666" type="line"/>
      <point x="52" y="645" type="line"/>
      <point x="51" y="624" type="line"/>
      <point x="50" y="602" type="line" smooth="yes"/>
      <point x="49" y="548"/>
      <point x="94" y="501"/>
      <point x="148" y="500" type="curve" smooth="yes"/>
      <point x="202" y="499"/>
      <point x="249" y="544"/>
      <point x="250" y="598" type="curve" smooth="yes"/>
      <point x="250" y="612" type="line"/>
      <point x="251" y="624" type="line"/>
      <point x="252" y="635" type="line"/>
      <point x="253" y="644" type="line"/>
      <point x="255" y="652" type="line"/>
      <point x="256" y="659" type="line"/>
      <point x="258" y="665" type="line"/>
      <point x="260" y="670" type="line"/>
      <point x="262" y="674" type="line"/>
      <point x="263" y="677" type="line"/>
      <point x="264" y="680" type="line"/>
      <point x="266" y="682" type="line"/>
      <point x="267" y="683" type="line"/>
      <point x="273" y="689" type="line"/>
      <point x="275" y="690" type="line"/>
      <point x="278" y="692" type="line"/>
      <point x="281" y="693" type="line"/>
      <point x="284" y="694" type="line"/>
      <point x="288" y="695" type="line"/>
      <point x="292" y="696" type="line"/>
      <point x="297" y="697" type="line"/>
      <point x="302" y="698" type="line"/>
      <point x="307" y="699" type="line"/>
      <point x="313" y="699" type="line"/>
      <point x="318" y="699" type="line"/>
      <point x="324" y="700" type="line"/>
      <point x="330" y="700" type="line"/>
      <point x="337" y="700" type="line"/>
      <point x="343" y="700" type="line"/>
      <point x="540" y="700" type="line"/>
      <point x="547" y="700" type="line"/>
      <point x="559" y="700" type="line"/>
      <point x="569" y="699" type="line"/>
      <point x="578" y="698" type="line"/>
      <point x="586" y="696" type="line"/>
      <point x="599" y="692" type="line"/>
      <point x="609" y="687" type="line"/>
      <point x="617" y="681" type="line"/>
      <point x="620" y="679" type="line"/>
      <point x="623" y="675" type="line"/>
      <point x="626" y="671" type="line"/>
      <point x="629" y="667" type="line"/>
      <point x="632" y="663" type="line"/>
      <point x="635" y="658" type="line"/>
      <point x="638" y="653" type="line"/>
      <point x="640" y="648" type="line"/>
      <point x="642" y="642" type="line"/>
      <point x="644" y="637" type="line"/>
      <point x="645" y="632" type="line"/>
      <point x="646" y="626" type="line"/>
      <point x="647" y="622" type="line"/>
      <point x="648" y="617" type="line"/>
      <point x="649" y="613" type="line"/>
      <point x="649" y="610" type="line"/>
      <point x="650" y="605" type="line"/>
      <point x="650" y="602" type="line"/>
      <point x="650" y="588" type="line"/>
      <point x="649" y="576" type="line"/>
      <point x="648" y="565" type="line"/>
      <point x="647" y="556" type="line"/>
      <point x="645" y="548" type="line"/>
      <point x="644" y="541" type="line"/>
      <point x="642" y="535" type="line"/>
      <point x="640" y="530" type="line"/>
      <point x="638" y="526" type="line"/>
      <point x="637" y="523" type="line"/>
      <point x="636" y="520" type="line"/>
      <point x="634" y="518" type="line"/>
      <point x="633" y="517" type="line"/>
      <point x="627" y="511" type="line"/>
      <point x="625" y="510" type="line"/>
      <point x="622" y="508" type="line"/>
      <point x="619" y="507" type="line"/>
      <point x="616" y="506" type="line"/>
      <point x="612" y="505" type="line"/>
      <point x="608" y="504" type="line"/>
      <point x="603" y="503" type="line"/>
      <point x="598" y="502" type="line"/>
      <point x="593" y="501" type="line"/>
      <point x="587" y="501" type="line"/>
      <point x="582" y="501" type="line"/>
      <point x="576" y="500" type="line"/>
      <point x="570" y="500" type="line"/>
      <point x="563" y="500" type="line"/>
      <point x="557" y="500" type="line"/>
      <point x="343" y="500" type="line"/>
      <point x="335" y="500" type="line"/>
      <point x="327" y="500" type="line"/>
      <point x="318" y="500" type="line"/>
      <point x="308" y="499" type="line"/>
      <point x="298" y="499" type="line"/>
      <point x="288" y="498" type="line"/>
      <point x="277" y="496" type="line"/>
      <point x="265" y="495" type="line"/>
      <point x="253" y="492" type="line"/>
      <point x="241" y="490" type="line"/>
      <point x="228" y="486" type="line"/>
      <point x="215" y="482" type="line"/>
      <point x="202" y="477" type="line"/>
      <point x="189" y="471" type="line"/>
      <point x="176" y="464" type="line"/>
      <point x="162" y="455" type="line"/>
      <point x="149" y="446" type="line"/>
      <point x="142" y="440" type="line" smooth="yes"/>
      <point x="141" y="439"/>
      <point x="138" y="437"/>
      <point x="137" y="436" type="curve" smooth="yes"/>
      <point x="125" y="424" type="line"/>
      <point x="114" y="411" type="line"/>
      <point x="103" y="398" type="line"/>
      <point x="94" y="383" type="line"/>
      <point x="85" y="368" type="line"/>
      <point x="77" y="352" type="line"/>
      <point x="71" y="335" type="line"/>
      <point x="65" y="317" type="line"/>
      <point x="60" y="299" type="line"/>
      <point x="57" y="280" type="line"/>
      <point x="54" y="261" type="line"/>
      <point x="52" y="241" type="line"/>
      <point x="50" y="220" type="line"/>
      <point x="50" y="200" type="line"/>
      <point x="50" y="0" type="line" smooth="yes"/>
      <point x="50" y="-55"/>
      <point x="95" y="-100"/>
      <point x="150" y="-100" type="curve" smooth="yes"/>
    </contour>
    <contour>
      <point x="269" y="285" type="line"/>
      <point x="271" y="287" type="line"/>
      <point x="272" y="289" type="line"/>
      <point x="274" y="290" type="line"/>
      <point x="269" y="285" type="line"/>
    </contour>
  </outline>
</glyph>
<glyph name="three" format="1">
  <advance width="900"/>
  <unicode hex="0033"/>
  <outline>
    <contour>
      <point x="632" y="686" type="line"/>
      <point x="627" y="690" type="line"/>
      <point x="629" y="689" type="line"/>
      <point x="630" y="687" type="line"/>
    </contour>
    <contour>
      <point x="262" y="680" type="line"/>
      <point x="264" y="681" type="line"/>
      <point x="265" y="683" type="line"/>
      <point x="261" y="678" type="line"/>
    </contour>
    <contour>
      <point x="635" y="519" type="line"/>
      <point x="639" y="524" type="line"/>
      <point x="638" y="522" type="line"/>
      <point x="636" y="521" type="line"/>
    </contour>
    <contour>
      <point x="350" y="-99" type="line"/>
      <point x="557" y="-99" type="line"/>
      <point x="565" y="-99" type="line"/>
      <point x="573" y="-99" type="line"/>
      <point x="582" y="-99" type="line"/>
      <point x="592" y="-98" type="line"/>
      <point x="602" y="-98" type="line"/>
      <point x="612" y="-97" type="line"/>
      <point x="623" y="-95" type="line"/>
      <point x="635" y="-94" type="line"/>
      <point x="647" y="-91" type="line"/>
      <point x="659" y="-89" type="line"/>
      <point x="672" y="-85" type="line"/>
      <point x="685" y="-81" type="line"/>
      <point x="698" y="-76" type="line"/>
      <point x="711" y="-70" type="line"/>
      <point x="724" y="-63" type="line"/>
      <point x="738" y="-54" type="line"/>
      <point x="751" y="-45" type="line"/>
      <point x="758" y="-39" type="line" smooth="yes"/>
      <point x="759" y="-38"/>
      <point x="762" y="-36"/>
      <point x="763" y="-35" type="curve" smooth="yes"/>
      <point x="775" y="-23" type="line"/>
      <point x="786" y="-10" type="line"/>
      <point x="797" y="3" type="line"/>
      <point x="806" y="18" type="line"/>
      <point x="815" y="33" type="line"/>
      <point x="823" y="49" type="line"/>
      <point x="829" y="66" type="line"/>
      <point x="835" y="84" type="line"/>
      <point x="840" y="102" type="line"/>
      <point x="843" y="121" type="line"/>
      <point x="846" y="140" type="line"/>
      <point x="848" y="160" type="line"/>
      <point x="850" y="181" type="line"/>
      <point x="850" y="201" type="line"/>
      <point x="850" y="208" type="line"/>
      <point x="850" y="216" type="line"/>
      <point x="850" y="224" type="line"/>
      <point x="850" y="233" type="line"/>
      <point x="849" y="243" type="line"/>
      <point x="849" y="253" type="line"/>
      <point x="848" y="263" type="line"/>
      <point x="846" y="274" type="line"/>
      <point x="845" y="286" type="line"/>
      <point x="842" y="298" type="line"/>
      <point x="840" y="310" type="line"/>
      <point x="836" y="323" type="line"/>
      <point x="832" y="336" type="line"/>
      <point x="827" y="349" type="line"/>
      <point x="821" y="362" type="line"/>
      <point x="814" y="375" type="line"/>
      <point x="805" y="389" type="line"/>
      <point x="796" y="401" type="line"/>
      <point x="800" y="406" type="line"/>
      <point x="809" y="419" type="line"/>
      <point x="817" y="432" type="line"/>
      <point x="823" y="445" type="line"/>
      <point x="829" y="458" type="line"/>
      <point x="834" y="471" type="line"/>
      <point x="838" y="484" type="line"/>
      <point x="841" y="496" type="line"/>
      <point x="843" y="508" type="line"/>
      <point x="845" y="520" type="line"/>
      <point x="847" y="531" type="line"/>
      <point x="848" y="541" type="line"/>
      <point x="849" y="552" type="line"/>
      <point x="849" y="561" type="line"/>
      <point x="850" y="571" type="line"/>
      <point x="850" y="579" type="line"/>
      <point x="850" y="587" type="line"/>
      <point x="850" y="594" type="line"/>
      <point x="850" y="603" type="line"/>
      <point x="849" y="625" type="line"/>
      <point x="848" y="646" type="line"/>
      <point x="846" y="667" type="line"/>
      <point x="842" y="686" type="line"/>
      <point x="838" y="706" type="line"/>
      <point x="833" y="724" type="line"/>
      <point x="827" y="742" type="line"/>
      <point x="820" y="759" type="line"/>
      <point x="812" y="775" type="line"/>
      <point x="802" y="790" type="line"/>
      <point x="792" y="805" type="line"/>
      <point x="781" y="818" type="line"/>
      <point x="770" y="830" type="line"/>
      <point x="763" y="837" type="line" smooth="yes"/>
      <point x="762" y="838"/>
      <point x="759" y="840"/>
      <point x="758" y="841" type="curve" smooth="yes"/>
      <point x="745" y="851" type="line"/>
      <point x="732" y="860" type="line"/>
      <point x="719" y="868" type="line"/>
      <point x="706" y="874" type="line"/>
      <point x="693" y="880" type="line"/>
      <point x="680" y="885" type="line"/>
      <point x="667" y="889" type="line"/>
      <point x="655" y="892" type="line"/>
      <point x="643" y="894" type="line"/>
      <point x="631" y="896" type="line"/>
      <point x="620" y="898" type="line"/>
      <point x="610" y="899" type="line"/>
      <point x="599" y="900" type="line"/>
      <point x="590" y="900" type="line"/>
      <point x="580" y="901" type="line"/>
      <point x="572" y="901" type="line"/>
      <point x="564" y="901" type="line"/>
      <point x="557" y="901" type="line"/>
      <point x="550" y="901" type="line" smooth="yes"/>
      <point x="360" y="901" type="line"/>
      <point x="348" y="901" type="line"/>
      <point x="326" y="900" type="line"/>
      <point x="305" y="899" type="line"/>
      <point x="284" y="897" type="line"/>
      <point x="265" y="893" type="line"/>
      <point x="245" y="889" type="line"/>
      <point x="227" y="884" type="line"/>
      <point x="209" y="878" type="line"/>
      <point x="192" y="871" type="line"/>
      <point x="176" y="863" type="line"/>
      <point x="161" y="853" type="line"/>
      <point x="146" y="843" type="line"/>
      <point x="133" y="832" type="line"/>
      <point x="121" y="821" type="line"/>
      <point x="114" y="814" type="line" smooth="yes"/>
      <point x="113" y="813"/>
      <point x="111" y="810"/>
      <point x="110" y="809" type="curve" smooth="yes"/>
      <point x="100" y="796" type="line"/>
      <point x="91" y="783" type="line"/>
      <point x="83" y="770" type="line"/>
      <point x="77" y="757" type="line"/>
      <point x="71" y="744" type="line"/>
      <point x="66" y="731" type="line"/>
      <point x="62" y="718" type="line"/>
      <point x="59" y="706" type="line"/>
      <point x="57" y="694" type="line"/>
      <point x="55" y="682" type="line"/>
      <point x="53" y="671" type="line"/>
      <point x="52" y="661" type="line"/>
      <point x="51" y="650" type="line"/>
      <point x="51" y="641" type="line"/>
      <point x="50" y="631" type="line"/>
      <point x="50" y="623" type="line"/>
      <point x="50" y="615" type="line"/>
      <point x="50" y="608" type="line"/>
      <point x="50" y="601" type="line" smooth="yes"/>
      <point x="50" y="547"/>
      <point x="96" y="501"/>
      <point x="150" y="501" type="curve" smooth="yes"/>
      <point x="204" y="501"/>
      <point x="250" y="547"/>
      <point x="250" y="601" type="curve" smooth="yes"/>
      <point x="250" y="608" type="line"/>
      <point x="250" y="614" type="line"/>
      <point x="250" y="621" type="line"/>
      <point x="250" y="627" type="line"/>
      <point x="251" y="633" type="line"/>
      <point x="251" y="638" type="line"/>
      <point x="251" y="644" type="line"/>
      <point x="252" y="649" type="line"/>
      <point x="253" y="654" type="line"/>
      <point x="254" y="659" type="line"/>
      <point x="255" y="663" type="line"/>
      <point x="256" y="667" type="line"/>
      <point x="257" y="670" type="line"/>
      <point x="258" y="673" type="line"/>
      <point x="260" y="676" type="line"/>
      <point x="261" y="678" type="line"/>
      <point x="267" y="684" type="line"/>
      <point x="268" y="685" type="line"/>
      <point x="270" y="687" type="line"/>
      <point x="273" y="688" type="line"/>
      <point x="276" y="689" type="line"/>
      <point x="280" y="691" type="line"/>
      <point x="285" y="693" type="line"/>
      <point x="291" y="695" type="line"/>
      <point x="298" y="696" type="line"/>
      <point x="306" y="698" type="line"/>
      <point x="315" y="699" type="line"/>
      <point x="326" y="700" type="line"/>
      <point x="338" y="701" type="line"/>
      <point x="352" y="701" type="line"/>
      <point x="360" y="701" type="line"/>
      <point x="550" y="701" type="line"/>
      <point x="557" y="701" type="line"/>
      <point x="563" y="701" type="line"/>
      <point x="570" y="701" type="line"/>
      <point x="576" y="701" type="line"/>
      <point x="582" y="700" type="line"/>
      <point x="587" y="700" type="line"/>
      <point x="593" y="700" type="line"/>
      <point x="598" y="699" type="line"/>
      <point x="603" y="698" type="line"/>
      <point x="608" y="697" type="line"/>
      <point x="612" y="696" type="line"/>
      <point x="616" y="695" type="line"/>
      <point x="619" y="694" type="line"/>
      <point x="622" y="693" type="line"/>
      <point x="625" y="691" type="line"/>
      <point x="627" y="690" type="line"/>
      <point x="633" y="684" type="line"/>
      <point x="634" y="683" type="line"/>
      <point x="636" y="681" type="line"/>
      <point x="637" y="678" type="line"/>
      <point x="638" y="675" type="line"/>
      <point x="640" y="671" type="line"/>
      <point x="642" y="666" type="line"/>
      <point x="644" y="660" type="line"/>
      <point x="645" y="653" type="line"/>
      <point x="647" y="645" type="line"/>
      <point x="648" y="636" type="line"/>
      <point x="649" y="625" type="line"/>
      <point x="650" y="613" type="line"/>
      <point x="650" y="599" type="line"/>
      <point x="650" y="594" type="line"/>
      <point x="650" y="588" type="line"/>
      <point x="650" y="581" type="line"/>
      <point x="650" y="575" type="line"/>
      <point x="649" y="569" type="line"/>
      <point x="649" y="564" type="line"/>
      <point x="649" y="558" type="line"/>
      <point x="648" y="553" type="line"/>
      <point x="647" y="548" type="line"/>
      <point x="646" y="543" type="line"/>
      <point x="645" y="539" type="line"/>
      <point x="644" y="535" type="line"/>
      <point x="643" y="532" type="line"/>
      <point x="642" y="529" type="line"/>
      <point x="640" y="526" type="line"/>
      <point x="639" y="524" type="line"/>
      <point x="633" y="518" type="line"/>
      <point x="632" y="517" type="line"/>
      <point x="630" y="515" type="line"/>
      <point x="627" y="514" type="line"/>
      <point x="624" y="513" type="line"/>
      <point x="620" y="511" type="line"/>
      <point x="615" y="509" type="line"/>
      <point x="609" y="507" type="line"/>
      <point x="602" y="506" type="line"/>
      <point x="594" y="504" type="line"/>
      <point x="585" y="503" type="line"/>
      <point x="574" y="502" type="line"/>
      <point x="562" y="501" type="line"/>
      <point x="549" y="501" type="line"/>
      <point x="360" y="501" type="line"/>
      <point x="360" y="301" type="line"/>
      <point x="549" y="301" type="line"/>
      <point x="566" y="301" type="line"/>
      <point x="578" y="300" type="line"/>
      <point x="590" y="299" type="line"/>
      <point x="599" y="297" type="line"/>
      <point x="608" y="295" type="line"/>
      <point x="615" y="293" type="line"/>
      <point x="621" y="291" type="line"/>
      <point x="626" y="288" type="line"/>
      <point x="630" y="286" type="line"/>
      <point x="633" y="284" type="line"/>
      <point x="635" y="282" type="line"/>
      <point x="641" y="276" type="line"/>
      <point x="641" y="274" type="line"/>
      <point x="642" y="272" type="line"/>
      <point x="643" y="270" type="line"/>
      <point x="644" y="268" type="line"/>
      <point x="645" y="265" type="line"/>
      <point x="646" y="262" type="line"/>
      <point x="646" y="259" type="line"/>
      <point x="647" y="255" type="line"/>
      <point x="648" y="251" type="line"/>
      <point x="648" y="246" type="line"/>
      <point x="649" y="241" type="line"/>
      <point x="649" y="236" type="line"/>
      <point x="650" y="231" type="line"/>
      <point x="650" y="225" type="line"/>
      <point x="650" y="219" type="line"/>
      <point x="650" y="213" type="line"/>
      <point x="650" y="207" type="line"/>
      <point x="650" y="201" type="line"/>
      <point x="650" y="185" type="line"/>
      <point x="649" y="173" type="line"/>
      <point x="648" y="161" type="line"/>
      <point x="646" y="152" type="line"/>
      <point x="644" y="143" type="line"/>
      <point x="642" y="136" type="line"/>
      <point x="640" y="130" type="line"/>
      <point x="637" y="125" type="line"/>
      <point x="635" y="121" type="line"/>
      <point x="633" y="118" type="line"/>
      <point x="631" y="116" type="line"/>
      <point x="625" y="110" type="line"/>
      <point x="623" y="110" type="line"/>
      <point x="621" y="109" type="line"/>
      <point x="619" y="108" type="line"/>
      <point x="617" y="107" type="line"/>
      <point x="614" y="106" type="line"/>
      <point x="611" y="105" type="line"/>
      <point x="608" y="105" type="line"/>
      <point x="604" y="104" type="line"/>
      <point x="600" y="103" type="line"/>
      <point x="595" y="103" type="line"/>
      <point x="590" y="102" type="line"/>
      <point x="585" y="102" type="line"/>
      <point x="580" y="101" type="line"/>
      <point x="574" y="101" type="line"/>
      <point x="568" y="101" type="line"/>
      <point x="562" y="101" type="line"/>
      <point x="556" y="101" type="line"/>
      <point x="350" y="101" type="line"/>
      <point x="334" y="101" type="line"/>
      <point x="322" y="102" type="line"/>
      <point x="310" y="103" type="line"/>
      <point x="301" y="105" type="line"/>
      <point x="292" y="107" type="line"/>
      <point x="285" y="109" type="line"/>
      <point x="279" y="111" type="line"/>
      <point x="274" y="114" type="line"/>
      <point x="270" y="116" type="line"/>
      <point x="267" y="118" type="line"/>
      <point x="265" y="120" type="line"/>
      <point x="259" y="126" type="line"/>
      <point x="259" y="128" type="line"/>
      <point x="258" y="130" type="line"/>
      <point x="257" y="132" type="line"/>
      <point x="256" y="134" type="line"/>
      <point x="255" y="137" type="line"/>
      <point x="254" y="140" type="line"/>
      <point x="254" y="143" type="line"/>
      <point x="253" y="147" type="line"/>
      <point x="252" y="151" type="line"/>
      <point x="252" y="156" type="line"/>
      <point x="251" y="161" type="line"/>
      <point x="251" y="166" type="line"/>
      <point x="250" y="171" type="line"/>
      <point x="250" y="177" type="line"/>
      <point x="250" y="183" type="line"/>
      <point x="250" y="189" type="line"/>
      <point x="250" y="195" type="line"/>
      <point x="250" y="201" type="line" smooth="yes"/>
      <point x="250" y="255"/>
      <point x="204" y="301"/>
      <point x="150" y="301" type="curve" smooth="yes"/>
      <point x="96" y="301"/>
      <point x="50" y="255"/>
      <point x="50" y="201" type="curve" smooth="yes"/>
      <point x="50" y="194" type="line"/>
      <point x="50" y="186" type="line"/>
      <point x="50" y="178" type="line"/>
      <point x="50" y="169" type="line"/>
      <point x="51" y="159" type="line"/>
      <point x="51" y="149" type="line"/>
      <point x="52" y="139" type="line"/>
      <point x="54" y="128" type="line"/>
      <point x="55" y="116" type="line"/>
      <point x="58" y="104" type="line"/>
      <point x="60" y="92" type="line"/>
      <point x="64" y="79" type="line"/>
      <point x="68" y="66" type="line"/>
      <point x="73" y="53" type="line"/>
      <point x="79" y="40" type="line"/>
      <point x="86" y="27" type="line"/>
      <point x="95" y="13" type="line"/>
      <point x="104" y="0" type="line"/>
      <point x="110" y="-7" type="line" smooth="yes"/>
      <point x="111" y="-8"/>
      <point x="113" y="-11"/>
      <point x="114" y="-12" type="curve" smooth="yes"/>
      <point x="126" y="-24" type="line"/>
      <point x="139" y="-35" type="line"/>
      <point x="152" y="-46" type="line"/>
      <point x="167" y="-55" type="line"/>
      <point x="182" y="-64" type="line"/>
      <point x="198" y="-72" type="line"/>
      <point x="215" y="-78" type="line"/>
      <point x="233" y="-84" type="line"/>
      <point x="251" y="-89" type="line"/>
      <point x="270" y="-92" type="line"/>
      <point x="289" y="-95" type="line"/>
      <point x="309" y="-97" type="line"/>
      <point x="330" y="-99" type="line"/>
    </contour>
    <contour>
      <point x="640" y="277" type="line"/>
      <point x="635" y="282" type="line"/>
      <point x="635" y="282" type="line"/>
      <point x="637" y="280" type="line"/>
      <point x="639" y="279" type="line"/>
    </contour>
    <contour>
      <point x="265" y="120" type="line"/>
      <point x="263" y="122" type="line"/>
      <point x="261" y="123" type="line"/>
      <point x="260" y="125" type="line"/>
      <point x="265" y="120" type="line"/>
    </contour>
    <contour>
      <point x="626" y="111" type="line"/>
      <point x="631" y="116" type="line"/>
      <point x="631" y="116" type="line"/>
      <point x="629" y="114" type="line"/>
      <point x="628" y="112" type="line"/>
    </contour>
  </outline>
</glyph>
<glyph name="four" format="1">
  <advance width="894"/>
  <unicode hex="0034"/>
  <outline>
    <contour>
      <point x="744" y="-99" type="curve" smooth="yes"/>
      <point x="798" y="-99"/>
      <point x="844" y="-53"/>
      <point x="844" y="1" type="curve" smooth="yes"/>
      <point x="844" y="600" type="line" smooth="yes"/>
      <point x="844" y="654"/>
      <point x="798" y="700"/>
      <point x="744" y="700" type="curve" smooth="yes"/>
      <point x="690" y="700"/>
      <point x="644" y="654"/>
      <point x="644" y="600" type="curve" smooth="yes"/>
      <point x="644" y="389" type="line"/>
      <point x="629" y="392" type="line"/>
      <point x="610" y="396" type="line"/>
      <point x="589" y="398" type="line"/>
      <point x="568" y="399" type="line"/>
      <point x="546" y="400" type="line"/>
      <point x="534" y="400" type="line"/>
      <point x="321" y="400" type="line"/>
      <point x="525" y="740" type="line"/>
      <point x="530" y="749" type="line" smooth="yes"/>
      <point x="558" y="795"/>
      <point x="542" y="858"/>
      <point x="495" y="886" type="curve" smooth="yes"/>
      <point x="449" y="914"/>
      <point x="386" y="898"/>
      <point x="358" y="851" type="curve" smooth="yes"/>
      <point x="69" y="369" type="line"/>
      <point x="63" y="360" type="line" smooth="yes"/>
      <point x="47" y="333"/>
      <point x="46" y="288"/>
      <point x="62" y="260" type="curve" smooth="yes"/>
      <point x="67" y="251" type="line" smooth="yes"/>
      <point x="83" y="223"/>
      <point x="122" y="200"/>
      <point x="154" y="200" type="curve" smooth="yes"/>
      <point x="534" y="200" type="line"/>
      <point x="542" y="200" type="line"/>
      <point x="556" y="200" type="line"/>
      <point x="568" y="199" type="line"/>
      <point x="579" y="198" type="line"/>
      <point x="588" y="197" type="line"/>
      <point x="596" y="195" type="line"/>
      <point x="603" y="194" type="line"/>
      <point x="609" y="192" type="line"/>
      <point x="614" y="190" type="line"/>
      <point x="618" y="188" type="line"/>
      <point x="621" y="187" type="line"/>
      <point x="624" y="186" type="line"/>
      <point x="626" y="184" type="line"/>
      <point x="627" y="183" type="line"/>
      <point x="633" y="177" type="line"/>
      <point x="634" y="175" type="line"/>
      <point x="636" y="172" type="line"/>
      <point x="637" y="169" type="line"/>
      <point x="638" y="166" type="line"/>
      <point x="639" y="162" type="line"/>
      <point x="640" y="158" type="line"/>
      <point x="641" y="153" type="line"/>
      <point x="642" y="148" type="line"/>
      <point x="643" y="143" type="line"/>
      <point x="643" y="137" type="line"/>
      <point x="643" y="132" type="line"/>
      <point x="644" y="126" type="line"/>
      <point x="644" y="120" type="line"/>
      <point x="644" y="113" type="line"/>
      <point x="644" y="107" type="line"/>
      <point x="644" y="100" type="line" smooth="yes"/>
      <point x="644" y="1" type="line" smooth="yes"/>
      <point x="644" y="-53"/>
      <point x="690" y="-99"/>
    </contour>
    <contour>
      <point x="629" y="182" type="line"/>
      <point x="630" y="180" type="line"/>
      <point x="632" y="179" type="line"/>
      <point x="633" y="177" type="line"/>
    </contour>
  </outline>
</glyph>
<glyph name="five" format="1">
  <advance width="900"/>
  <unicode hex="0035"/>
  <outline>
    <contour>
      <point x="262" y="680" type="line"/>
      <point x="264" y="681" type="line"/>
      <point x="265" y="683" type="line"/>
      <point x="261" y="678" type="line"/>
    </contour>
    <contour>
      <point x="350" y="-99" type="curve" smooth="yes"/>
      <point x="557" y="-99" type="line"/>
      <point x="564" y="-99" type="line"/>
      <point x="572" y="-99" type="line"/>
      <point x="580" y="-99" type="line"/>
      <point x="590" y="-98" type="line"/>
      <point x="599" y="-98" type="line"/>
      <point x="610" y="-97" type="line"/>
      <point x="620" y="-96" type="line"/>
      <point x="631" y="-94" type="line"/>
      <point x="643" y="-92" type="line"/>
      <point x="655" y="-90" type="line"/>
      <point x="667" y="-87" type="line"/>
      <point x="680" y="-83" type="line"/>
      <point x="693" y="-78" type="line"/>
      <point x="706" y="-72" type="line"/>
      <point x="719" y="-66" type="line"/>
      <point x="732" y="-58" type="line"/>
      <point x="745" y="-49" type="line"/>
      <point x="758" y="-39" type="line" smooth="yes"/>
      <point x="759" y="-38"/>
      <point x="762" y="-36"/>
      <point x="763" y="-35" type="curve" smooth="yes"/>
      <point x="770" y="-28" type="line"/>
      <point x="781" y="-16" type="line"/>
      <point x="792" y="-3" type="line"/>
      <point x="802" y="12" type="line"/>
      <point x="812" y="27" type="line"/>
      <point x="820" y="43" type="line"/>
      <point x="827" y="60" type="line"/>
      <point x="833" y="78" type="line"/>
      <point x="838" y="96" type="line"/>
      <point x="842" y="116" type="line"/>
      <point x="846" y="135" type="line"/>
      <point x="848" y="156" type="line"/>
      <point x="849" y="177" type="line"/>
      <point x="850" y="199" type="line"/>
      <point x="850" y="208" type="line"/>
      <point x="850" y="215" type="line"/>
      <point x="850" y="223" type="line"/>
      <point x="850" y="231" type="line"/>
      <point x="849" y="241" type="line"/>
      <point x="849" y="250" type="line"/>
      <point x="848" y="261" type="line"/>
      <point x="847" y="271" type="line"/>
      <point x="845" y="282" type="line"/>
      <point x="843" y="294" type="line"/>
      <point x="841" y="306" type="line"/>
      <point x="838" y="318" type="line"/>
      <point x="834" y="331" type="line"/>
      <point x="829" y="344" type="line"/>
      <point x="823" y="357" type="line"/>
      <point x="817" y="370" type="line"/>
      <point x="809" y="383" type="line"/>
      <point x="800" y="396" type="line"/>
      <point x="790" y="409" type="line" smooth="yes"/>
      <point x="789" y="410"/>
      <point x="787" y="413"/>
      <point x="786" y="414" type="curve" smooth="yes"/>
      <point x="779" y="421" type="line"/>
      <point x="767" y="432" type="line"/>
      <point x="754" y="443" type="line"/>
      <point x="739" y="453" type="line"/>
      <point x="724" y="463" type="line"/>
      <point x="708" y="471" type="line"/>
      <point x="691" y="478" type="line"/>
      <point x="673" y="484" type="line"/>
      <point x="655" y="489" type="line"/>
      <point x="635" y="493" type="line"/>
      <point x="616" y="497" type="line"/>
      <point x="595" y="499" type="line"/>
      <point x="574" y="500" type="line"/>
      <point x="552" y="501" type="line"/>
      <point x="540" y="501" type="line"/>
      <point x="250" y="501" type="line"/>
      <point x="250" y="601" type="line"/>
      <point x="250" y="608" type="line"/>
      <point x="250" y="614" type="line"/>
      <point x="250" y="621" type="line"/>
      <point x="250" y="627" type="line"/>
      <point x="251" y="633" type="line"/>
      <point x="251" y="638" type="line"/>
      <point x="251" y="644" type="line"/>
      <point x="252" y="649" type="line"/>
      <point x="253" y="654" type="line"/>
      <point x="254" y="659" type="line"/>
      <point x="255" y="663" type="line"/>
      <point x="256" y="667" type="line"/>
      <point x="257" y="670" type="line"/>
      <point x="258" y="673" type="line"/>
      <point x="260" y="676" type="line"/>
      <point x="261" y="678" type="line"/>
      <point x="267" y="684" type="line"/>
      <point x="268" y="685" type="line"/>
      <point x="270" y="687" type="line"/>
      <point x="273" y="688" type="line"/>
      <point x="276" y="689" type="line"/>
      <point x="280" y="691" type="line"/>
      <point x="285" y="693" type="line"/>
      <point x="291" y="695" type="line"/>
      <point x="298" y="696" type="line"/>
      <point x="306" y="698" type="line"/>
      <point x="315" y="699" type="line"/>
      <point x="326" y="700" type="line"/>
      <point x="338" y="701" type="line"/>
      <point x="352" y="701" type="line"/>
      <point x="360" y="701" type="line"/>
      <point x="750" y="701" type="line" smooth="yes"/>
      <point x="804" y="701"/>
      <point x="850" y="747"/>
      <point x="850" y="801" type="curve" smooth="yes"/>
      <point x="850" y="855"/>
      <point x="804" y="901"/>
      <point x="750" y="901" type="curve" smooth="yes"/>
      <point x="360" y="901" type="line"/>
      <point x="348" y="901" type="line"/>
      <point x="326" y="900" type="line"/>
      <point x="305" y="899" type="line"/>
      <point x="284" y="897" type="line"/>
      <point x="265" y="893" type="line"/>
      <point x="245" y="889" type="line"/>
      <point x="227" y="884" type="line"/>
      <point x="209" y="878" type="line"/>
      <point x="192" y="871" type="line"/>
      <point x="176" y="863" type="line"/>
      <point x="161" y="853" type="line"/>
      <point x="146" y="843" type="line"/>
      <point x="133" y="832" type="line"/>
      <point x="121" y="821" type="line"/>
      <point x="114" y="814" type="line" smooth="yes"/>
      <point x="113" y="813"/>
      <point x="111" y="810"/>
      <point x="110" y="809" type="curve" smooth="yes"/>
      <point x="100" y="796" type="line"/>
      <point x="91" y="783" type="line"/>
      <point x="83" y="770" type="line"/>
      <point x="77" y="757" type="line"/>
      <point x="71" y="744" type="line"/>
      <point x="66" y="731" type="line"/>
      <point x="62" y="718" type="line"/>
      <point x="59" y="706" type="line"/>
      <point x="57" y="694" type="line"/>
      <point x="55" y="682" type="line"/>
      <point x="53" y="671" type="line"/>
      <point x="52" y="661" type="line"/>
      <point x="51" y="650" type="line"/>
      <point x="51" y="641" type="line"/>
      <point x="50" y="631" type="line"/>
      <point x="50" y="623" type="line"/>
      <point x="50" y="615" type="line"/>
      <point x="50" y="608" type="line"/>
      <point x="50" y="601" type="line"/>
      <point x="50" y="401" type="line" smooth="yes"/>
      <point x="50" y="346"/>
      <point x="95" y="301"/>
      <point x="150" y="301" type="curve" smooth="yes"/>
      <point x="540" y="301" type="line"/>
      <point x="548" y="301" type="line"/>
      <point x="562" y="301" type="line"/>
      <point x="574" y="300" type="line"/>
      <point x="585" y="299" type="line"/>
      <point x="594" y="298" type="line"/>
      <point x="602" y="296" type="line"/>
      <point x="609" y="295" type="line"/>
      <point x="615" y="293" type="line"/>
      <point x="620" y="291" type="line"/>
      <point x="624" y="289" type="line"/>
      <point x="627" y="288" type="line"/>
      <point x="630" y="287" type="line"/>
      <point x="632" y="285" type="line"/>
      <point x="633" y="284" type="line"/>
      <point x="639" y="278" type="line"/>
      <point x="640" y="276" type="line"/>
      <point x="642" y="273" type="line"/>
      <point x="643" y="270" type="line"/>
      <point x="644" y="267" type="line"/>
      <point x="645" y="263" type="line"/>
      <point x="646" y="259" type="line"/>
      <point x="647" y="254" type="line"/>
      <point x="648" y="249" type="line"/>
      <point x="649" y="244" type="line"/>
      <point x="649" y="238" type="line"/>
      <point x="649" y="233" type="line"/>
      <point x="650" y="227" type="line"/>
      <point x="650" y="221" type="line"/>
      <point x="650" y="214" type="line"/>
      <point x="650" y="208" type="line"/>
      <point x="650" y="203" type="line"/>
      <point x="650" y="189" type="line"/>
      <point x="649" y="177" type="line"/>
      <point x="648" y="166" type="line"/>
      <point x="647" y="157" type="line"/>
      <point x="645" y="149" type="line"/>
      <point x="644" y="142" type="line"/>
      <point x="642" y="136" type="line"/>
      <point x="640" y="131" type="line"/>
      <point x="638" y="127" type="line"/>
      <point x="637" y="124" type="line"/>
      <point x="636" y="121" type="line"/>
      <point x="634" y="119" type="line"/>
      <point x="633" y="118" type="line"/>
      <point x="627" y="112" type="line"/>
      <point x="625" y="111" type="line"/>
      <point x="622" y="109" type="line"/>
      <point x="619" y="108" type="line"/>
      <point x="616" y="107" type="line"/>
      <point x="612" y="106" type="line"/>
      <point x="608" y="105" type="line"/>
      <point x="603" y="104" type="line"/>
      <point x="598" y="103" type="line"/>
      <point x="593" y="102" type="line"/>
      <point x="587" y="102" type="line"/>
      <point x="582" y="102" type="line"/>
      <point x="576" y="101" type="line"/>
      <point x="570" y="101" type="line"/>
      <point x="563" y="101" type="line"/>
      <point x="557" y="101" type="line"/>
      <point x="351" y="101" type="line"/>
      <point x="338" y="101" type="line"/>
      <point x="326" y="102" type="line"/>
      <point x="315" y="103" type="line"/>
      <point x="306" y="104" type="line"/>
      <point x="298" y="106" type="line"/>
      <point x="291" y="107" type="line"/>
      <point x="285" y="109" type="line"/>
      <point x="280" y="111" type="line"/>
      <point x="276" y="113" type="line"/>
      <point x="273" y="114" type="line"/>
      <point x="270" y="115" type="line"/>
      <point x="268" y="117" type="line"/>
      <point x="267" y="118" type="line"/>
      <point x="261" y="124" type="line"/>
      <point x="260" y="126" type="line"/>
      <point x="258" y="129" type="line"/>
      <point x="257" y="132" type="line"/>
      <point x="256" y="135" type="line"/>
      <point x="255" y="139" type="line"/>
      <point x="254" y="143" type="line"/>
      <point x="253" y="148" type="line"/>
      <point x="252" y="153" type="line"/>
      <point x="251" y="158" type="line"/>
      <point x="251" y="164" type="line"/>
      <point x="251" y="169" type="line"/>
      <point x="250" y="175" type="line"/>
      <point x="250" y="181" type="line"/>
      <point x="250" y="188" type="line"/>
      <point x="250" y="194" type="line"/>
      <point x="250" y="201" type="line" smooth="yes"/>
      <point x="250" y="255"/>
      <point x="204" y="301"/>
      <point x="150" y="301" type="curve" smooth="yes"/>
      <point x="96" y="301"/>
      <point x="50" y="255"/>
      <point x="50" y="201" type="curve" smooth="yes"/>
      <point x="50" y="194" type="line"/>
      <point x="50" y="187" type="line"/>
      <point x="50" y="179" type="line"/>
      <point x="50" y="171" type="line"/>
      <point x="51" y="161" type="line"/>
      <point x="51" y="152" type="line"/>
      <point x="52" y="141" type="line"/>
      <point x="53" y="131" type="line"/>
      <point x="55" y="120" type="line"/>
      <point x="57" y="108" type="line"/>
      <point x="59" y="96" type="line"/>
      <point x="62" y="84" type="line"/>
      <point x="66" y="71" type="line"/>
      <point x="71" y="58" type="line"/>
      <point x="77" y="45" type="line"/>
      <point x="83" y="32" type="line"/>
      <point x="91" y="19" type="line"/>
      <point x="100" y="6" type="line"/>
      <point x="110" y="-7" type="line" smooth="yes"/>
      <point x="111" y="-8"/>
      <point x="113" y="-11"/>
      <point x="114" y="-12" type="curve" smooth="yes"/>
      <point x="121" y="-19" type="line"/>
      <point x="133" y="-30" type="line"/>
      <point x="146" y="-41" type="line"/>
      <point x="161" y="-51" type="line"/>
      <point x="176" y="-61" type="line"/>
      <point x="192" y="-69" type="line"/>
      <point x="209" y="-76" type="line"/>
      <point x="227" y="-82" type="line"/>
      <point x="245" y="-87" type="line"/>
      <point x="265" y="-91" type="line"/>
      <point x="284" y="-95" type="line"/>
      <point x="305" y="-97" type="line"/>
      <point x="326" y="-98" type="line"/>
      <point x="348" y="-99" type="line" smooth="yes"/>
      <point x="349" y="-99"/>
      <point x="349" y="-99"/>
    </contour>
    <contour>
      <point x="635" y="283" type="line"/>
      <point x="636" y="281" type="line"/>
      <point x="638" y="280" type="line"/>
      <point x="639" y="278" type="line"/>
    </contour>
    <contour>
      <point x="265" y="119" type="line"/>
      <point x="264" y="121" type="line"/>
      <point x="262" y="122" type="line"/>
      <point x="261" y="124" type="line"/>
    </contour>
    <contour>
      <point x="632" y="116" type="line"/>
      <point x="630" y="115" type="line"/>
      <point x="629" y="113" type="line"/>
      <point x="627" y="112" type="line"/>
    </contour>
  </outline>
</glyph>
<glyph name="seven" format="1">
  <advance width="899"/>
  <unicode hex="0037"/>
  <outline>
    <contour>
      <point x="433" y="-58" type="curve" smooth="yes"/>
      <point x="827" y="533" type="line"/>
      <point x="832" y="542" type="line" smooth="yes"/>
      <point x="842" y="556"/>
      <point x="849" y="580"/>
      <point x="849" y="597" type="curve" smooth="yes"/>
      <point x="849" y="604" type="line"/>
      <point x="849" y="611" type="line"/>
      <point x="849" y="619" type="line"/>
      <point x="849" y="627" type="line"/>
      <point x="848" y="636" type="line"/>
      <point x="848" y="646" type="line"/>
      <point x="847" y="656" type="line"/>
      <point x="846" y="667" type="line"/>
      <point x="844" y="678" type="line"/>
      <point x="843" y="690" type="line"/>
      <point x="840" y="702" type="line"/>
      <point x="837" y="714" type="line"/>
      <point x="833" y="727" type="line"/>
      <point x="828" y="739" type="line"/>
      <point x="823" y="752" type="line"/>
      <point x="816" y="766" type="line"/>
      <point x="809" y="779" type="line"/>
      <point x="800" y="792" type="line"/>
      <point x="790" y="804" type="line" smooth="yes"/>
      <point x="789" y="806"/>
      <point x="786" y="808"/>
      <point x="785" y="810" type="curve" smooth="yes"/>
      <point x="779" y="817" type="line"/>
      <point x="767" y="828" type="line"/>
      <point x="753" y="839" type="line"/>
      <point x="739" y="849" type="line"/>
      <point x="723" y="859" type="line"/>
      <point x="707" y="867" type="line"/>
      <point x="690" y="874" type="line"/>
      <point x="672" y="880" type="line"/>
      <point x="654" y="885" type="line"/>
      <point x="635" y="890" type="line"/>
      <point x="615" y="893" type="line"/>
      <point x="594" y="895" type="line"/>
      <point x="573" y="896" type="line"/>
      <point x="551" y="897" type="line"/>
      <point x="539" y="897" type="line"/>
      <point x="150" y="897" type="line" smooth="yes"/>
      <point x="96" y="897"/>
      <point x="50" y="851"/>
      <point x="50" y="797" type="curve" smooth="yes"/>
      <point x="50" y="743"/>
      <point x="96" y="697"/>
      <point x="150" y="697" type="curve" smooth="yes"/>
      <point x="539" y="697" type="line"/>
      <point x="547" y="697" type="line"/>
      <point x="561" y="697" type="line"/>
      <point x="573" y="696" type="line"/>
      <point x="584" y="695" type="line"/>
      <point x="594" y="694" type="line"/>
      <point x="602" y="692" type="line"/>
      <point x="609" y="691" type="line"/>
      <point x="615" y="689" type="line"/>
      <point x="619" y="687" type="line"/>
      <point x="623" y="685" type="line"/>
      <point x="626" y="684" type="line"/>
      <point x="629" y="683" type="line"/>
      <point x="631" y="681" type="line"/>
      <point x="633" y="680" type="line"/>
      <point x="638" y="674" type="line"/>
      <point x="640" y="672" type="line"/>
      <point x="641" y="669" type="line"/>
      <point x="642" y="666" type="line"/>
      <point x="643" y="663" type="line"/>
      <point x="645" y="659" type="line"/>
      <point x="646" y="655" type="line"/>
      <point x="646" y="650" type="line"/>
      <point x="647" y="645" type="line"/>
      <point x="648" y="640" type="line"/>
      <point x="648" y="635" type="line"/>
      <point x="649" y="629" type="line"/>
      <point x="649" y="627" type="line"/>
      <point x="272" y="61" type="line"/>
      <point x="267" y="52" type="line" smooth="yes"/>
      <point x="237" y="7"/>
      <point x="250" y="-56"/>
      <point x="295" y="-86" type="curve" smooth="yes"/>
      <point x="340" y="-116"/>
      <point x="403" y="-103"/>
    </contour>
    <contour>
      <point x="634" y="679" type="line"/>
      <point x="636" y="677" type="line"/>
      <point x="637" y="676" type="line"/>
      <point x="638" y="674" type="line"/>
      <point x="638" y="674" type="line"/>
    </contour>
  </outline>
</glyph>
<glyph name="eight" format="1">
  <advance width="900"/>
  <unicode hex="0038"/>
  <outline>
    <contour>
      <point x="350" y="-100" type="line"/>
      <point x="557" y="-100" type="line"/>
      <point x="565" y="-100" type="line"/>
      <point x="573" y="-100" type="line"/>
      <point x="582" y="-100" type="line"/>
      <point x="592" y="-99" type="line"/>
      <point x="602" y="-99" type="line"/>
      <point x="612" y="-98" type="line"/>
      <point x="623" y="-96" type="line"/>
      <point x="635" y="-95" type="line"/>
      <point x="647" y="-92" type="line"/>
      <point x="659" y="-90" type="line"/>
      <point x="672" y="-86" type="line"/>
      <point x="685" y="-82" type="line"/>
      <point x="698" y="-77" type="line"/>
      <point x="711" y="-71" type="line"/>
      <point x="724" y="-64" type="line"/>
      <point x="738" y="-55" type="line"/>
      <point x="751" y="-46" type="line"/>
      <point x="758" y="-40" type="line" smooth="yes"/>
      <point x="759" y="-39"/>
      <point x="762" y="-37"/>
      <point x="763" y="-36" type="curve" smooth="yes"/>
      <point x="775" y="-24" type="line"/>
      <point x="786" y="-11" type="line"/>
      <point x="797" y="2" type="line"/>
      <point x="806" y="17" type="line"/>
      <point x="815" y="32" type="line"/>
      <point x="823" y="48" type="line"/>
      <point x="829" y="65" type="line"/>
      <point x="835" y="83" type="line"/>
      <point x="840" y="101" type="line"/>
      <point x="843" y="120" type="line"/>
      <point x="846" y="139" type="line"/>
      <point x="848" y="159" type="line"/>
      <point x="850" y="180" type="line"/>
      <point x="850" y="200" type="line"/>
      <point x="850" y="207" type="line"/>
      <point x="850" y="215" type="line"/>
      <point x="850" y="223" type="line"/>
      <point x="850" y="232" type="line"/>
      <point x="849" y="242" type="line"/>
      <point x="849" y="252" type="line"/>
      <point x="848" y="262" type="line"/>
      <point x="846" y="273" type="line"/>
      <point x="845" y="285" type="line"/>
      <point x="842" y="297" type="line"/>
      <point x="840" y="309" type="line"/>
      <point x="836" y="322" type="line"/>
      <point x="832" y="335" type="line"/>
      <point x="827" y="348" type="line"/>
      <point x="821" y="361" type="line"/>
      <point x="814" y="374" type="line"/>
      <point x="805" y="388" type="line"/>
      <point x="796" y="401" type="line"/>
      <point x="796" y="401" type="line"/>
      <point x="802" y="411" type="line"/>
      <point x="812" y="426" type="line"/>
      <point x="820" y="442" type="line"/>
      <point x="827" y="459" type="line"/>
      <point x="833" y="477" type="line"/>
      <point x="838" y="495" type="line"/>
      <point x="842" y="515" type="line"/>
      <point x="846" y="534" type="line"/>
      <point x="848" y="555" type="line"/>
      <point x="849" y="576" type="line"/>
      <point x="850" y="598" type="line"/>
      <point x="850" y="607" type="line"/>
      <point x="850" y="614" type="line"/>
      <point x="850" y="622" type="line"/>
      <point x="850" y="630" type="line"/>
      <point x="849" y="640" type="line"/>
      <point x="849" y="649" type="line"/>
      <point x="848" y="660" type="line"/>
      <point x="847" y="670" type="line"/>
      <point x="845" y="681" type="line"/>
      <point x="843" y="693" type="line"/>
      <point x="841" y="705" type="line"/>
      <point x="838" y="717" type="line"/>
      <point x="834" y="730" type="line"/>
      <point x="829" y="743" type="line"/>
      <point x="823" y="756" type="line"/>
      <point x="817" y="769" type="line"/>
      <point x="809" y="782" type="line"/>
      <point x="800" y="795" type="line"/>
      <point x="790" y="808" type="line" smooth="yes"/>
      <point x="789" y="809"/>
      <point x="787" y="812"/>
      <point x="786" y="813" type="curve" smooth="yes"/>
      <point x="779" y="820" type="line"/>
      <point x="767" y="831" type="line"/>
      <point x="754" y="842" type="line"/>
      <point x="739" y="852" type="line"/>
      <point x="724" y="862" type="line"/>
      <point x="708" y="870" type="line"/>
      <point x="691" y="877" type="line"/>
      <point x="673" y="883" type="line"/>
      <point x="655" y="888" type="line"/>
      <point x="635" y="892" type="line"/>
      <point x="616" y="896" type="line"/>
      <point x="595" y="898" type="line"/>
      <point x="574" y="899" type="line"/>
      <point x="552" y="900" type="line"/>
      <point x="540" y="900" type="line"/>
      <point x="343" y="900" type="line"/>
      <point x="336" y="900" type="line"/>
      <point x="328" y="900" type="line"/>
      <point x="320" y="900" type="line"/>
      <point x="310" y="899" type="line"/>
      <point x="301" y="899" type="line"/>
      <point x="290" y="898" type="line"/>
      <point x="280" y="897" type="line"/>
      <point x="269" y="895" type="line"/>
      <point x="257" y="893" type="line"/>
      <point x="245" y="891" type="line"/>
      <point x="233" y="888" type="line"/>
      <point x="220" y="884" type="line"/>
      <point x="207" y="879" type="line"/>
      <point x="194" y="873" type="line"/>
      <point x="181" y="867" type="line"/>
      <point x="168" y="859" type="line"/>
      <point x="155" y="850" type="line"/>
      <point x="142" y="840" type="line" smooth="yes"/>
      <point x="141" y="839"/>
      <point x="138" y="837"/>
      <point x="137" y="836" type="curve" smooth="yes"/>
      <point x="130" y="829" type="line"/>
      <point x="119" y="817" type="line"/>
      <point x="108" y="804" type="line"/>
      <point x="98" y="789" type="line"/>
      <point x="88" y="774" type="line"/>
      <point x="80" y="758" type="line"/>
      <point x="73" y="741" type="line"/>
      <point x="67" y="723" type="line"/>
      <point x="62" y="705" type="line"/>
      <point x="58" y="685" type="line"/>
      <point x="54" y="666" type="line"/>
      <point x="52" y="645" type="line"/>
      <point x="51" y="624" type="line"/>
      <point x="50" y="602" type="line"/>
      <point x="50" y="593" type="line"/>
      <point x="50" y="586" type="line"/>
      <point x="50" y="578" type="line"/>
      <point x="50" y="570" type="line"/>
      <point x="51" y="560" type="line"/>
      <point x="51" y="551" type="line"/>
      <point x="52" y="540" type="line"/>
      <point x="53" y="530" type="line"/>
      <point x="55" y="519" type="line"/>
      <point x="57" y="507" type="line"/>
      <point x="59" y="495" type="line"/>
      <point x="62" y="483" type="line"/>
      <point x="66" y="470" type="line"/>
      <point x="71" y="457" type="line"/>
      <point x="77" y="444" type="line"/>
      <point x="83" y="431" type="line"/>
      <point x="91" y="418" type="line"/>
      <point x="100" y="405" type="line"/>
      <point x="104" y="399" type="line"/>
      <point x="103" y="398" type="line"/>
      <point x="94" y="383" type="line"/>
      <point x="85" y="368" type="line"/>
      <point x="77" y="352" type="line"/>
      <point x="71" y="335" type="line"/>
      <point x="65" y="317" type="line"/>
      <point x="60" y="299" type="line"/>
      <point x="57" y="280" type="line"/>
      <point x="54" y="261" type="line"/>
      <point x="52" y="241" type="line"/>
      <point x="50" y="220" type="line"/>
      <point x="50" y="200" type="line"/>
      <point x="50" y="193" type="line"/>
      <point x="50" y="185" type="line"/>
      <point x="50" y="177" type="line"/>
      <point x="50" y="168" type="line"/>
      <point x="51" y="158" type="line"/>
      <point x="51" y="148" type="line"/>
      <point x="52" y="138" type="line"/>
      <point x="54" y="127" type="line"/>
      <point x="55" y="115" type="line"/>
      <point x="58" y="103" type="line"/>
      <point x="60" y="91" type="line"/>
      <point x="64" y="78" type="line"/>
      <point x="68" y="65" type="line"/>
      <point x="73" y="52" type="line"/>
      <point x="79" y="39" type="line"/>
      <point x="86" y="26" type="line"/>
      <point x="95" y="12" type="line"/>
      <point x="104" y="-1" type="line"/>
      <point x="110" y="-8" type="line" smooth="yes"/>
      <point x="111" y="-9"/>
      <point x="113" y="-12"/>
      <point x="114" y="-13" type="curve" smooth="yes"/>
      <point x="126" y="-25" type="line"/>
      <point x="139" y="-36" type="line"/>
      <point x="152" y="-47" type="line"/>
      <point x="167" y="-56" type="line"/>
      <point x="182" y="-65" type="line"/>
      <point x="198" y="-73" type="line"/>
      <point x="215" y="-79" type="line"/>
      <point x="233" y="-85" type="line"/>
      <point x="251" y="-90" type="line"/>
      <point x="270" y="-93" type="line"/>
      <point x="289" y="-96" type="line"/>
      <point x="309" y="-98" type="line"/>
      <point x="330" y="-100" type="line"/>
    </contour>
    <contour>
      <point x="550" y="500" type="line" smooth="yes"/>
      <point x="351" y="500" type="line"/>
      <point x="338" y="500" type="line"/>
      <point x="326" y="501" type="line"/>
      <point x="315" y="502" type="line"/>
      <point x="306" y="503" type="line"/>
      <point x="298" y="505" type="line"/>
      <point x="291" y="506" type="line"/>
      <point x="285" y="508" type="line"/>
      <point x="280" y="510" type="line"/>
      <point x="276" y="512" type="line"/>
      <point x="273" y="513" type="line"/>
      <point x="270" y="514" type="line"/>
      <point x="268" y="516" type="line"/>
      <point x="267" y="517" type="line"/>
      <point x="261" y="523" type="line"/>
      <point x="260" y="525" type="line"/>
      <point x="258" y="528" type="line"/>
      <point x="257" y="531" type="line"/>
      <point x="256" y="534" type="line"/>
      <point x="255" y="538" type="line"/>
      <point x="254" y="542" type="line"/>
      <point x="253" y="547" type="line"/>
      <point x="252" y="552" type="line"/>
      <point x="251" y="557" type="line"/>
      <point x="251" y="563" type="line"/>
      <point x="251" y="568" type="line"/>
      <point x="250" y="574" type="line"/>
      <point x="250" y="580" type="line"/>
      <point x="250" y="587" type="line"/>
      <point x="250" y="593" type="line"/>
      <point x="250" y="598" type="line"/>
      <point x="250" y="612" type="line"/>
      <point x="251" y="624" type="line"/>
      <point x="252" y="635" type="line"/>
      <point x="253" y="644" type="line"/>
      <point x="255" y="652" type="line"/>
      <point x="256" y="659" type="line"/>
      <point x="258" y="665" type="line"/>
      <point x="260" y="670" type="line"/>
      <point x="262" y="674" type="line"/>
      <point x="263" y="677" type="line"/>
      <point x="264" y="680" type="line"/>
      <point x="266" y="682" type="line"/>
      <point x="267" y="683" type="line"/>
      <point x="273" y="689" type="line"/>
      <point x="275" y="690" type="line"/>
      <point x="278" y="692" type="line"/>
      <point x="281" y="693" type="line"/>
      <point x="284" y="694" type="line"/>
      <point x="288" y="695" type="line"/>
      <point x="292" y="696" type="line"/>
      <point x="297" y="697" type="line"/>
      <point x="302" y="698" type="line"/>
      <point x="307" y="699" type="line"/>
      <point x="313" y="699" type="line"/>
      <point x="318" y="699" type="line"/>
      <point x="324" y="700" type="line"/>
      <point x="330" y="700" type="line"/>
      <point x="337" y="700" type="line"/>
      <point x="343" y="700" type="line"/>
      <point x="540" y="700" type="line"/>
      <point x="548" y="700" type="line"/>
      <point x="562" y="700" type="line"/>
      <point x="574" y="699" type="line"/>
      <point x="585" y="698" type="line"/>
      <point x="594" y="697" type="line"/>
      <point x="602" y="695" type="line"/>
      <point x="609" y="694" type="line"/>
      <point x="615" y="692" type="line"/>
      <point x="620" y="690" type="line"/>
      <point x="624" y="688" type="line"/>
      <point x="627" y="687" type="line"/>
      <point x="630" y="686" type="line"/>
      <point x="632" y="684" type="line"/>
      <point x="633" y="683" type="line"/>
      <point x="639" y="677" type="line"/>
      <point x="640" y="675" type="line"/>
      <point x="642" y="672" type="line"/>
      <point x="643" y="669" type="line"/>
      <point x="644" y="666" type="line"/>
      <point x="645" y="662" type="line"/>
      <point x="646" y="658" type="line"/>
      <point x="647" y="653" type="line"/>
      <point x="648" y="648" type="line"/>
      <point x="649" y="643" type="line"/>
      <point x="649" y="637" type="line"/>
      <point x="649" y="632" type="line"/>
      <point x="650" y="626" type="line"/>
      <point x="650" y="620" type="line"/>
      <point x="650" y="613" type="line"/>
      <point x="650" y="607" type="line"/>
      <point x="650" y="602" type="line"/>
      <point x="650" y="588" type="line"/>
      <point x="649" y="576" type="line"/>
      <point x="648" y="565" type="line"/>
      <point x="647" y="556" type="line"/>
      <point x="645" y="548" type="line"/>
      <point x="644" y="541" type="line"/>
      <point x="642" y="535" type="line"/>
      <point x="640" y="530" type="line"/>
      <point x="638" y="526" type="line"/>
      <point x="637" y="523" type="line"/>
      <point x="636" y="520" type="line"/>
      <point x="634" y="518" type="line"/>
      <point x="633" y="517" type="line"/>
      <point x="627" y="511" type="line"/>
      <point x="625" y="510" type="line"/>
      <point x="622" y="508" type="line"/>
      <point x="619" y="507" type="line"/>
      <point x="616" y="506" type="line"/>
      <point x="612" y="505" type="line"/>
      <point x="608" y="504" type="line"/>
      <point x="603" y="503" type="line"/>
      <point x="598" y="502" type="line"/>
      <point x="593" y="501" type="line"/>
      <point x="587" y="501" type="line"/>
      <point x="582" y="501" type="line"/>
      <point x="576" y="500" type="line"/>
      <point x="570" y="500" type="line"/>
      <point x="563" y="500" type="line"/>
      <point x="557" y="500" type="line"/>
    </contour>
    <contour>
      <point x="268" y="685" type="line"/>
      <point x="270" y="686" type="line"/>
      <point x="271" y="688" type="line"/>
      <point x="273" y="689" type="line"/>
    </contour>
    <contour>
      <point x="635" y="682" type="line"/>
      <point x="636" y="680" type="line"/>
      <point x="638" y="679" type="line"/>
      <point x="639" y="677" type="line"/>
    </contour>
    <contour>
      <point x="265" y="518" type="line"/>
      <point x="264" y="520" type="line"/>
      <point x="262" y="521" type="line"/>
      <point x="261" y="523" type="line"/>
    </contour>
    <contour>
      <point x="632" y="515" type="line"/>
      <point x="630" y="514" type="line"/>
      <point x="629" y="512" type="line"/>
      <point x="627" y="511" type="line"/>
    </contour>
    <contour>
      <point x="556" y="100" type="line"/>
      <point x="350" y="100" type="line"/>
      <point x="334" y="100" type="line"/>
      <point x="322" y="101" type="line"/>
      <point x="310" y="102" type="line"/>
      <point x="301" y="104" type="line"/>
      <point x="292" y="106" type="line"/>
      <point x="285" y="108" type="line"/>
      <point x="279" y="110" type="line"/>
      <point x="274" y="113" type="line"/>
      <point x="270" y="115" type="line"/>
      <point x="267" y="117" type="line"/>
      <point x="265" y="119" type="line"/>
      <point x="259" y="125" type="line"/>
      <point x="259" y="127" type="line"/>
      <point x="258" y="129" type="line"/>
      <point x="257" y="131" type="line"/>
      <point x="256" y="133" type="line"/>
      <point x="255" y="136" type="line"/>
      <point x="254" y="139" type="line"/>
      <point x="254" y="142" type="line"/>
      <point x="253" y="146" type="line"/>
      <point x="252" y="150" type="line"/>
      <point x="252" y="155" type="line"/>
      <point x="251" y="160" type="line"/>
      <point x="251" y="165" type="line"/>
      <point x="250" y="170" type="line"/>
      <point x="250" y="176" type="line"/>
      <point x="250" y="182" type="line"/>
      <point x="250" y="188" type="line"/>
      <point x="250" y="194" type="line"/>
      <point x="250" y="200" type="line"/>
      <point x="250" y="216" type="line"/>
      <point x="251" y="228" type="line"/>
      <point x="252" y="240" type="line"/>
      <point x="254" y="249" type="line"/>
      <point x="256" y="258" type="line"/>
      <point x="258" y="265" type="line"/>
      <point x="260" y="271" type="line"/>
      <point x="263" y="276" type="line"/>
      <point x="265" y="280" type="line"/>
      <point x="267" y="283" type="line"/>
      <point x="269" y="285" type="line"/>
      <point x="275" y="291" type="line"/>
      <point x="277" y="291" type="line"/>
      <point x="279" y="292" type="line"/>
      <point x="281" y="293" type="line"/>
      <point x="283" y="294" type="line"/>
      <point x="286" y="295" type="line"/>
      <point x="289" y="296" type="line"/>
      <point x="292" y="296" type="line"/>
      <point x="296" y="297" type="line"/>
      <point x="300" y="298" type="line"/>
      <point x="305" y="298" type="line"/>
      <point x="310" y="299" type="line"/>
      <point x="315" y="299" type="line"/>
      <point x="320" y="300" type="line"/>
      <point x="326" y="300" type="line"/>
      <point x="332" y="300" type="line"/>
      <point x="338" y="300" type="line"/>
      <point x="344" y="300" type="line"/>
      <point x="350" y="300" type="line"/>
      <point x="350" y="300" type="line" smooth="yes"/>
      <point x="549" y="300" type="line"/>
      <point x="566" y="300" type="line"/>
      <point x="578" y="299" type="line"/>
      <point x="590" y="298" type="line"/>
      <point x="599" y="296" type="line"/>
      <point x="608" y="294" type="line"/>
      <point x="615" y="292" type="line"/>
      <point x="621" y="290" type="line"/>
      <point x="626" y="287" type="line"/>
      <point x="630" y="285" type="line"/>
      <point x="633" y="283" type="line"/>
      <point x="635" y="281" type="line"/>
      <point x="641" y="275" type="line"/>
      <point x="641" y="273" type="line"/>
      <point x="642" y="271" type="line"/>
      <point x="643" y="269" type="line"/>
      <point x="644" y="267" type="line"/>
      <point x="645" y="264" type="line"/>
      <point x="646" y="261" type="line"/>
      <point x="646" y="258" type="line"/>
      <point x="647" y="254" type="line"/>
      <point x="648" y="250" type="line"/>
      <point x="648" y="245" type="line"/>
      <point x="649" y="240" type="line"/>
      <point x="649" y="235" type="line"/>
      <point x="650" y="230" type="line"/>
      <point x="650" y="224" type="line"/>
      <point x="650" y="218" type="line"/>
      <point x="650" y="212" type="line"/>
      <point x="650" y="206" type="line"/>
      <point x="650" y="200" type="line"/>
      <point x="650" y="184" type="line"/>
      <point x="649" y="172" type="line"/>
      <point x="648" y="160" type="line"/>
      <point x="646" y="151" type="line"/>
      <point x="644" y="142" type="line"/>
      <point x="642" y="135" type="line"/>
      <point x="640" y="129" type="line"/>
      <point x="637" y="124" type="line"/>
      <point x="635" y="120" type="line"/>
      <point x="633" y="117" type="line"/>
      <point x="631" y="115" type="line"/>
      <point x="625" y="109" type="line"/>
      <point x="623" y="109" type="line"/>
      <point x="621" y="108" type="line"/>
      <point x="619" y="107" type="line"/>
      <point x="617" y="106" type="line"/>
      <point x="614" y="105" type="line"/>
      <point x="611" y="104" type="line"/>
      <point x="608" y="104" type="line"/>
      <point x="604" y="103" type="line"/>
      <point x="600" y="102" type="line"/>
      <point x="595" y="102" type="line"/>
      <point x="590" y="101" type="line"/>
      <point x="585" y="101" type="line"/>
      <point x="580" y="100" type="line"/>
      <point x="574" y="100" type="line"/>
      <point x="568" y="100" type="line"/>
      <point x="562" y="100" type="line"/>
    </contour>
    <contour>
      <point x="269" y="285" type="line"/>
      <point x="271" y="287" type="line"/>
      <point x="272" y="289" type="line"/>
      <point x="274" y="290" type="line"/>
      <point x="269" y="285" type="line"/>
    </contour>
    <contour>
      <point x="640" y="276" type="line"/>
      <point x="635" y="281" type="line"/>
      <point x="635" y="281" type="line"/>
      <point x="637" y="279" type="line"/>
      <point x="639" y="278" type="line"/>
    </contour>
    <contour>
      <point x="265" y="119" type="line"/>
      <point x="263" y="121" type="line"/>
      <point x="261" y="122" type="line"/>
      <point x="260" y="124" type="line"/>
      <point x="265" y="119" type="line"/>
    </contour>
    <contour>
      <point x="626" y="110" type="line"/>
      <point x="631" y="115" type="line"/>
      <point x="631" y="115" type="line"/>
      <point x="629" y="113" type="line"/>
      <point x="628" y="111" type="line"/>
    </contour>
  </outline>
</glyph>
<glyph name="nine" format="1">
  <advance width="900"/>
  <unicode hex="0039"/>
  <outline>
    <contour>
      <point x="635" y="492" type="line"/>
      <point x="616" y="496" type="line"/>
      <point x="595" y="498" type="line"/>
      <point x="574" y="499" type="line"/>
      <point x="552" y="500" type="line"/>
      <point x="540" y="500" type="line"/>
      <point x="350" y="500" type="line"/>
      <point x="334" y="500" type="line"/>
      <point x="322" y="501" type="line"/>
      <point x="310" y="502" type="line"/>
      <point x="301" y="504" type="line"/>
      <point x="292" y="506" type="line"/>
      <point x="285" y="508" type="line"/>
      <point x="279" y="510" type="line"/>
      <point x="274" y="513" type="line"/>
      <point x="270" y="515" type="line"/>
      <point x="267" y="517" type="line"/>
      <point x="265" y="519" type="line"/>
      <point x="259" y="525" type="line"/>
      <point x="259" y="527" type="line"/>
      <point x="258" y="529" type="line"/>
      <point x="257" y="531" type="line"/>
      <point x="256" y="533" type="line"/>
      <point x="255" y="536" type="line"/>
      <point x="254" y="539" type="line"/>
      <point x="254" y="542" type="line"/>
      <point x="253" y="546" type="line"/>
      <point x="252" y="550" type="line"/>
      <point x="252" y="555" type="line"/>
      <point x="251" y="560" type="line"/>
      <point x="251" y="565" type="line"/>
      <point x="250" y="570" type="line"/>
      <point x="250" y="576" type="line"/>
      <point x="250" y="582" type="line"/>
      <point x="250" y="588" type="line"/>
      <point x="250" y="594" type="line"/>
      <point x="250" y="600" type="line"/>
      <point x="250" y="616" type="line"/>
      <point x="251" y="628" type="line"/>
      <point x="252" y="640" type="line"/>
      <point x="254" y="649" type="line"/>
      <point x="256" y="658" type="line"/>
      <point x="258" y="665" type="line"/>
      <point x="260" y="671" type="line"/>
      <point x="263" y="676" type="line"/>
      <point x="265" y="680" type="line"/>
      <point x="267" y="683" type="line"/>
      <point x="269" y="685" type="line"/>
      <point x="275" y="691" type="line"/>
      <point x="277" y="691" type="line"/>
      <point x="279" y="692" type="line"/>
      <point x="281" y="693" type="line"/>
      <point x="283" y="694" type="line"/>
      <point x="286" y="695" type="line"/>
      <point x="289" y="696" type="line"/>
      <point x="292" y="696" type="line"/>
      <point x="296" y="697" type="line"/>
      <point x="300" y="698" type="line"/>
      <point x="305" y="698" type="line"/>
      <point x="310" y="699" type="line"/>
      <point x="315" y="699" type="line"/>
      <point x="320" y="700" type="line"/>
      <point x="326" y="700" type="line"/>
      <point x="332" y="700" type="line"/>
      <point x="338" y="700" type="line"/>
      <point x="344" y="700" type="line"/>
      <point x="549" y="700" type="line"/>
      <point x="566" y="700" type="line"/>
      <point x="578" y="699" type="line"/>
      <point x="590" y="698" type="line"/>
      <point x="599" y="696" type="line"/>
      <point x="608" y="694" type="line"/>
      <point x="615" y="692" type="line"/>
      <point x="621" y="690" type="line"/>
      <point x="626" y="687" type="line"/>
      <point x="630" y="685" type="line"/>
      <point x="633" y="683" type="line"/>
      <point x="635" y="681" type="line"/>
      <point x="641" y="675" type="line"/>
      <point x="641" y="673" type="line"/>
      <point x="642" y="671" type="line"/>
      <point x="643" y="669" type="line"/>
      <point x="644" y="667" type="line"/>
      <point x="645" y="664" type="line"/>
      <point x="646" y="661" type="line"/>
      <point x="646" y="658" type="line"/>
      <point x="647" y="654" type="line"/>
      <point x="648" y="650" type="line"/>
      <point x="648" y="645" type="line"/>
      <point x="649" y="640" type="line"/>
      <point x="649" y="635" type="line"/>
      <point x="650" y="630" type="line"/>
      <point x="650" y="624" type="line"/>
      <point x="650" y="618" type="line"/>
      <point x="650" y="612" type="line"/>
      <point x="650" y="606" type="line"/>
      <point x="650" y="600" type="line"/>
      <point x="650" y="489" type="line"/>
    </contour>
    <contour>
      <point x="269" y="685" type="line"/>
      <point x="271" y="687" type="line"/>
      <point x="272" y="689" type="line"/>
      <point x="274" y="690" type="line"/>
      <point x="269" y="685" type="line"/>
    </contour>
    <contour>
      <point x="640" y="676" type="line"/>
      <point x="635" y="681" type="line"/>
      <point x="635" y="681" type="line"/>
      <point x="637" y="679" type="line"/>
      <point x="639" y="678" type="line"/>
    </contour>
    <contour>
      <point x="265" y="519" type="line"/>
      <point x="263" y="521" type="line"/>
      <point x="261" y="522" type="line"/>
      <point x="260" y="524" type="line"/>
      <point x="265" y="519" type="line"/>
    </contour>
    <contour>
      <point x="540" y="-100" type="line"/>
      <point x="552" y="-100" type="line"/>
      <point x="574" y="-99" type="line"/>
      <point x="595" y="-98" type="line"/>
      <point x="616" y="-96" type="line"/>
      <point x="635" y="-92" type="line"/>
      <point x="655" y="-88" type="line"/>
      <point x="673" y="-83" type="line"/>
      <point x="691" y="-77" type="line"/>
      <point x="708" y="-70" type="line"/>
      <point x="724" y="-62" type="line"/>
      <point x="739" y="-52" type="line"/>
      <point x="754" y="-42" type="line"/>
      <point x="767" y="-31" type="line"/>
      <point x="779" y="-20" type="line"/>
      <point x="786" y="-13" type="line" smooth="yes"/>
      <point x="787" y="-12"/>
      <point x="789" y="-9"/>
      <point x="790" y="-8" type="curve" smooth="yes"/>
      <point x="800" y="5" type="line"/>
      <point x="809" y="18" type="line"/>
      <point x="817" y="31" type="line"/>
      <point x="823" y="44" type="line"/>
      <point x="829" y="57" type="line"/>
      <point x="834" y="70" type="line"/>
      <point x="838" y="83" type="line"/>
      <point x="841" y="95" type="line"/>
      <point x="843" y="107" type="line"/>
      <point x="845" y="119" type="line"/>
      <point x="847" y="130" type="line"/>
      <point x="848" y="140" type="line"/>
      <point x="849" y="151" type="line"/>
      <point x="849" y="160" type="line"/>
      <point x="850" y="170" type="line"/>
      <point x="850" y="178" type="line"/>
      <point x="850" y="186" type="line"/>
      <point x="850" y="193" type="line"/>
      <point x="850" y="200" type="line"/>
      <point x="850" y="600" type="line"/>
      <point x="850" y="607" type="line"/>
      <point x="850" y="615" type="line"/>
      <point x="850" y="623" type="line"/>
      <point x="850" y="632" type="line"/>
      <point x="849" y="642" type="line"/>
      <point x="849" y="652" type="line"/>
      <point x="848" y="662" type="line"/>
      <point x="846" y="673" type="line"/>
      <point x="845" y="685" type="line"/>
      <point x="842" y="697" type="line"/>
      <point x="840" y="709" type="line"/>
      <point x="836" y="722" type="line"/>
      <point x="832" y="735" type="line"/>
      <point x="827" y="748" type="line"/>
      <point x="821" y="761" type="line"/>
      <point x="814" y="774" type="line"/>
      <point x="805" y="788" type="line"/>
      <point x="796" y="801" type="line"/>
      <point x="790" y="808" type="line" smooth="yes"/>
      <point x="789" y="809"/>
      <point x="787" y="812"/>
      <point x="786" y="813" type="curve" smooth="yes"/>
      <point x="774" y="825" type="line"/>
      <point x="761" y="836" type="line"/>
      <point x="748" y="847" type="line"/>
      <point x="733" y="856" type="line"/>
      <point x="718" y="865" type="line"/>
      <point x="702" y="873" type="line"/>
      <point x="685" y="879" type="line"/>
      <point x="667" y="885" type="line"/>
      <point x="649" y="890" type="line"/>
      <point x="630" y="893" type="line"/>
      <point x="611" y="896" type="line"/>
      <point x="591" y="898" type="line"/>
      <point x="570" y="900" type="line"/>
      <point x="552" y="900" type="line" smooth="yes"/>
      <point x="551" y="900"/>
      <point x="551" y="900"/>
      <point x="550" y="900" type="curve" smooth="yes"/>
      <point x="343" y="900" type="line"/>
      <point x="335" y="900" type="line"/>
      <point x="327" y="900" type="line"/>
      <point x="318" y="900" type="line"/>
      <point x="308" y="899" type="line"/>
      <point x="298" y="899" type="line"/>
      <point x="288" y="898" type="line"/>
      <point x="277" y="896" type="line"/>
      <point x="265" y="895" type="line"/>
      <point x="253" y="892" type="line"/>
      <point x="241" y="890" type="line"/>
      <point x="228" y="886" type="line"/>
      <point x="215" y="882" type="line"/>
      <point x="202" y="877" type="line"/>
      <point x="189" y="871" type="line"/>
      <point x="176" y="864" type="line"/>
      <point x="162" y="855" type="line"/>
      <point x="149" y="846" type="line"/>
      <point x="142" y="840" type="line" smooth="yes"/>
      <point x="141" y="839"/>
      <point x="138" y="837"/>
      <point x="137" y="836" type="curve" smooth="yes"/>
      <point x="125" y="824" type="line"/>
      <point x="114" y="811" type="line"/>
      <point x="103" y="798" type="line"/>
      <point x="94" y="783" type="line"/>
      <point x="85" y="768" type="line"/>
      <point x="77" y="752" type="line"/>
      <point x="71" y="735" type="line"/>
      <point x="65" y="717" type="line"/>
      <point x="60" y="699" type="line"/>
      <point x="57" y="680" type="line"/>
      <point x="54" y="661" type="line"/>
      <point x="52" y="641" type="line"/>
      <point x="50" y="620" type="line"/>
      <point x="50" y="600" type="line"/>
      <point x="50" y="593" type="line"/>
      <point x="50" y="585" type="line"/>
      <point x="50" y="577" type="line"/>
      <point x="50" y="568" type="line"/>
      <point x="51" y="558" type="line"/>
      <point x="51" y="548" type="line"/>
      <point x="52" y="538" type="line"/>
      <point x="54" y="527" type="line"/>
      <point x="55" y="515" type="line"/>
      <point x="58" y="503" type="line"/>
      <point x="60" y="491" type="line"/>
      <point x="64" y="478" type="line"/>
      <point x="68" y="465" type="line"/>
      <point x="73" y="452" type="line"/>
      <point x="79" y="439" type="line"/>
      <point x="86" y="426" type="line"/>
      <point x="95" y="412" type="line"/>
      <point x="104" y="399" type="line"/>
      <point x="110" y="392" type="line" smooth="yes"/>
      <point x="111" y="391"/>
      <point x="113" y="388"/>
      <point x="114" y="387" type="curve" smooth="yes"/>
      <point x="126" y="375" type="line"/>
      <point x="139" y="364" type="line"/>
      <point x="152" y="353" type="line"/>
      <point x="167" y="344" type="line"/>
      <point x="182" y="335" type="line"/>
      <point x="198" y="327" type="line"/>
      <point x="215" y="321" type="line"/>
      <point x="233" y="315" type="line"/>
      <point x="251" y="310" type="line"/>
      <point x="270" y="307" type="line"/>
      <point x="289" y="304" type="line"/>
      <point x="309" y="302" type="line"/>
      <point x="330" y="300" type="line"/>
      <point x="350" y="300" type="line"/>
      <point x="540" y="300" type="line"/>
      <point x="548" y="300" type="line"/>
      <point x="562" y="300" type="line"/>
      <point x="574" y="299" type="line"/>
      <point x="585" y="298" type="line"/>
      <point x="594" y="297" type="line"/>
      <point x="602" y="295" type="line"/>
      <point x="609" y="294" type="line"/>
      <point x="615" y="292" type="line"/>
      <point x="620" y="290" type="line"/>
      <point x="624" y="288" type="line"/>
      <point x="627" y="287" type="line"/>
      <point x="630" y="286" type="line"/>
      <point x="632" y="284" type="line"/>
      <point x="633" y="283" type="line"/>
      <point x="639" y="277" type="line"/>
      <point x="640" y="275" type="line"/>
      <point x="642" y="272" type="line"/>
      <point x="643" y="269" type="line"/>
      <point x="644" y="266" type="line"/>
      <point x="645" y="262" type="line"/>
      <point x="646" y="258" type="line"/>
      <point x="647" y="253" type="line"/>
      <point x="648" y="248" type="line"/>
      <point x="649" y="243" type="line"/>
      <point x="649" y="237" type="line"/>
      <point x="649" y="232" type="line"/>
      <point x="650" y="226" type="line"/>
      <point x="650" y="220" type="line"/>
      <point x="650" y="213" type="line"/>
      <point x="650" y="207" type="line"/>
      <point x="650" y="200" type="line" smooth="yes"/>
      <point x="650" y="200" type="line"/>
      <point x="650" y="193" type="line"/>
      <point x="650" y="187" type="line"/>
      <point x="650" y="180" type="line"/>
      <point x="650" y="174" type="line"/>
      <point x="649" y="168" type="line"/>
      <point x="649" y="163" type="line"/>
      <point x="649" y="157" type="line"/>
      <point x="648" y="152" type="line"/>
      <point x="647" y="147" type="line"/>
      <point x="646" y="142" type="line"/>
      <point x="645" y="138" type="line"/>
      <point x="644" y="134" type="line"/>
      <point x="643" y="131" type="line"/>
      <point x="642" y="128" type="line"/>
      <point x="640" y="125" type="line"/>
      <point x="639" y="123" type="line"/>
      <point x="633" y="117" type="line"/>
      <point x="632" y="116" type="line"/>
      <point x="630" y="114" type="line"/>
      <point x="627" y="113" type="line"/>
      <point x="624" y="112" type="line"/>
      <point x="620" y="110" type="line"/>
      <point x="615" y="108" type="line"/>
      <point x="609" y="106" type="line"/>
      <point x="602" y="105" type="line"/>
      <point x="594" y="103" type="line"/>
      <point x="585" y="102" type="line"/>
      <point x="574" y="101" type="line"/>
      <point x="562" y="100" type="line"/>
      <point x="548" y="100" type="line"/>
      <point x="540" y="100" type="line"/>
      <point x="343" y="100" type="line"/>
      <point x="337" y="100" type="line"/>
      <point x="330" y="100" type="line"/>
      <point x="324" y="100" type="line"/>
      <point x="318" y="101" type="line"/>
      <point x="313" y="101" type="line"/>
      <point x="307" y="101" type="line"/>
      <point x="302" y="102" type="line"/>
      <point x="297" y="103" type="line"/>
      <point x="292" y="104" type="line"/>
      <point x="288" y="105" type="line"/>
      <point x="284" y="106" type="line"/>
      <point x="281" y="107" type="line"/>
      <point x="278" y="108" type="line"/>
      <point x="275" y="110" type="line"/>
      <point x="273" y="111" type="line"/>
      <point x="267" y="117" type="line"/>
      <point x="266" y="118" type="line"/>
      <point x="264" y="120" type="line"/>
      <point x="263" y="123" type="line"/>
      <point x="262" y="126" type="line"/>
      <point x="260" y="130" type="line"/>
      <point x="258" y="135" type="line"/>
      <point x="256" y="141" type="line"/>
      <point x="255" y="148" type="line"/>
      <point x="253" y="156" type="line"/>
      <point x="252" y="165" type="line"/>
      <point x="251" y="176" type="line"/>
      <point x="250" y="188" type="line"/>
      <point x="250" y="202" type="line" smooth="yes"/>
      <point x="249" y="256"/>
      <point x="202" y="301"/>
      <point x="148" y="300" type="curve" smooth="yes"/>
      <point x="94" y="299"/>
      <point x="49" y="252"/>
      <point x="50" y="198" type="curve" smooth="yes"/>
      <point x="51" y="176" type="line"/>
      <point x="52" y="155" type="line"/>
      <point x="54" y="134" type="line"/>
      <point x="58" y="115" type="line"/>
      <point x="62" y="95" type="line"/>
      <point x="67" y="77" type="line"/>
      <point x="73" y="59" type="line"/>
      <point x="80" y="42" type="line"/>
      <point x="88" y="26" type="line"/>
      <point x="98" y="11" type="line"/>
      <point x="108" y="-4" type="line"/>
      <point x="119" y="-17" type="line"/>
      <point x="130" y="-29" type="line"/>
      <point x="137" y="-36" type="line" smooth="yes"/>
      <point x="138" y="-37"/>
      <point x="141" y="-39"/>
      <point x="142" y="-40" type="curve" smooth="yes"/>
      <point x="155" y="-50" type="line"/>
      <point x="168" y="-59" type="line"/>
      <point x="181" y="-67" type="line"/>
      <point x="194" y="-73" type="line"/>
      <point x="207" y="-79" type="line"/>
      <point x="220" y="-84" type="line"/>
      <point x="233" y="-88" type="line"/>
      <point x="245" y="-91" type="line"/>
      <point x="257" y="-93" type="line"/>
      <point x="269" y="-95" type="line"/>
      <point x="280" y="-97" type="line"/>
      <point x="290" y="-98" type="line"/>
      <point x="301" y="-99" type="line"/>
      <point x="310" y="-99" type="line"/>
      <point x="320" y="-100" type="line"/>
      <point x="328" y="-100" type="line"/>
      <point x="336" y="-100" type="line"/>
      <point x="343" y="-100" type="line"/>
    </contour>
    <contour>
      <point x="635" y="282" type="line"/>
      <point x="636" y="280" type="line"/>
      <point x="638" y="279" type="line"/>
      <point x="639" y="277" type="line"/>
    </contour>
    <contour>
      <point x="635" y="118" type="line"/>
      <point x="639" y="123" type="line"/>
      <point x="638" y="121" type="line"/>
      <point x="636" y="120" type="line"/>
    </contour>
    <contour>
      <point x="271" y="112" type="line"/>
      <point x="270" y="114" type="line"/>
      <point x="268" y="115" type="line"/>
      <point x="273" y="111" type="line"/>
    </contour>
  </outline>
</glyph>
<glyph name="semicolon" format="1">
  <advance width="400"/>
  <unicode hex="003B"/>
  <outline>
    <contour>
      <point x="250" y="483" type="curve" smooth="yes"/>
      <point x="304" y="483"/>
      <point x="350" y="529"/>
      <point x="350" y="583" type="curve" smooth="yes"/>
      <point x="350" y="592" type="line" smooth="yes"/>
      <point x="350" y="646"/>
      <point x="304" y="692"/>
      <point x="250" y="692" type="curve" smooth="yes"/>
      <point x="196" y="692"/>
      <point x="150" y="646"/>
      <point x="150" y="592" type="curve" smooth="yes"/>
      <point x="150" y="583" type="line" smooth="yes"/>
      <point x="150" y="529"/>
      <point x="196" y="483"/>
    </contour>
    <contour>
      <point x="150" y="-108" type="curve" smooth="yes"/>
      <point x="250" y="-108" type="line" smooth="yes"/>
      <point x="305" y="-108"/>
      <point x="350" y="-63"/>
      <point x="350" y="-8" type="curve" smooth="yes"/>
      <point x="350" y="192" type="line" smooth="yes"/>
      <point x="350" y="246"/>
      <point x="304" y="292"/>
      <point x="250" y="292" type="curve" smooth="yes"/>
      <point x="196" y="292"/>
      <point x="150" y="246"/>
      <point x="150" y="192" type="curve" smooth="yes"/>
      <point x="150" y="92" type="line" smooth="yes"/>
      <point x="96" y="92"/>
      <point x="50" y="46"/>
      <point x="50" y="-8" type="curve" smooth="yes"/>
      <point x="50" y="-62"/>
      <point x="96" y="-108"/>
    </contour>
  </outline>
</glyph>
<glyph name="less" format="1">
  <advance width="691"/>
  <unicode hex="003C"/>
  <outline>
    <contour>
      <point x="630" y="58" type="curve" smooth="yes"/>
      <point x="655" y="107"/>
      <point x="634" y="168"/>
      <point x="586" y="192" type="curve" smooth="yes"/>
      <point x="365" y="303" type="line"/>
      <point x="577" y="409" type="line"/>
      <point x="586" y="414" type="line" smooth="yes"/>
      <point x="634" y="438"/>
      <point x="655" y="499"/>
      <point x="630" y="548" type="curve" smooth="yes"/>
      <point x="606" y="596"/>
      <point x="545" y="617"/>
      <point x="496" y="592" type="curve" smooth="yes"/>
      <point x="114" y="401" type="line"/>
      <point x="105" y="397" type="line" smooth="yes"/>
      <point x="75" y="382"/>
      <point x="50" y="342"/>
      <point x="50" y="307" type="curve" smooth="yes"/>
      <point x="50" y="299" type="line" smooth="yes"/>
      <point x="50" y="264"/>
      <point x="75" y="224"/>
      <point x="105" y="209" type="curve" smooth="yes"/>
      <point x="487" y="18" type="line"/>
      <point x="496" y="14" type="line" smooth="yes"/>
      <point x="545" y="-11"/>
      <point x="606" y="10"/>
    </contour>
  </outline>
</glyph>
<glyph name="greater" format="1">
  <advance width="691"/>
  <unicode hex="003E"/>
  <outline>
    <contour>
      <point x="195" y="31" type="curve" smooth="yes"/>
      <point x="577" y="222" type="line"/>
      <point x="586" y="226" type="line" smooth="yes"/>
      <point x="616" y="241"/>
      <point x="641" y="281"/>
      <point x="641" y="316" type="curve"/>
      <point x="641" y="324" type="line"/>
      <point x="641" y="359"/>
      <point x="616" y="399"/>
      <point x="586" y="414" type="curve" smooth="yes"/>
      <point x="204" y="605" type="line"/>
      <point x="195" y="609" type="line" smooth="yes"/>
      <point x="146" y="634"/>
      <point x="85" y="613"/>
      <point x="61" y="565" type="curve" smooth="yes"/>
      <point x="36" y="516"/>
      <point x="57" y="455"/>
      <point x="105" y="431" type="curve" smooth="yes"/>
      <point x="326" y="320" type="line"/>
      <point x="114" y="214" type="line"/>
      <point x="105" y="209" type="line" smooth="yes"/>
      <point x="57" y="185"/>
      <point x="36" y="124"/>
      <point x="61" y="75" type="curve" smooth="yes"/>
      <point x="85" y="27"/>
      <point x="146" y="6"/>
    </contour>
  </outline>
</glyph>
<glyph name="question" format="1">
  <advance width="799"/>
  <unicode hex="003F"/>
  <outline>
    <contour>
      <point x="349" y="-100" type="curve" smooth="yes"/>
      <point x="403" y="-100"/>
      <point x="449" y="-54"/>
      <point x="449" y="0" type="curve" smooth="yes"/>
      <point x="449" y="11" type="line" smooth="yes"/>
      <point x="449" y="54"/>
      <point x="420" y="92"/>
      <point x="381" y="106" type="curve"/>
      <point x="420" y="119"/>
      <point x="449" y="157"/>
      <point x="449" y="200" type="curve" smooth="yes"/>
      <point x="449" y="299" type="line"/>
      <point x="456" y="299" type="line"/>
      <point x="463" y="299" type="line"/>
      <point x="471" y="299" type="line"/>
      <point x="480" y="299" type="line"/>
      <point x="489" y="300" type="line"/>
      <point x="499" y="300" type="line"/>
      <point x="509" y="301" type="line"/>
      <point x="520" y="302" type="line"/>
      <point x="531" y="304" type="line"/>
      <point x="542" y="306" type="line"/>
      <point x="554" y="309" type="line"/>
      <point x="567" y="312" type="line"/>
      <point x="579" y="316" type="line"/>
      <point x="592" y="321" type="line"/>
      <point x="605" y="326" type="line"/>
      <point x="618" y="333" type="line"/>
      <point x="631" y="341" type="line"/>
      <point x="644" y="349" type="line"/>
      <point x="657" y="359" type="line"/>
      <point x="669" y="371" type="line"/>
      <point x="681" y="383" type="line"/>
      <point x="691" y="396" type="line"/>
      <point x="702" y="411" type="line" smooth="yes"/>
      <point x="703" y="412"/>
      <point x="704" y="415"/>
      <point x="705" y="417" type="curve" smooth="yes"/>
      <point x="711" y="426" type="line"/>
      <point x="719" y="442" type="line"/>
      <point x="726" y="459" type="line"/>
      <point x="732" y="477" type="line"/>
      <point x="737" y="495" type="line"/>
      <point x="741" y="515" type="line"/>
      <point x="745" y="534" type="line"/>
      <point x="747" y="555" type="line"/>
      <point x="748" y="576" type="line"/>
      <point x="749" y="598" type="line"/>
      <point x="749" y="607" type="line"/>
      <point x="749" y="614" type="line"/>
      <point x="749" y="622" type="line"/>
      <point x="749" y="631" type="line"/>
      <point x="748" y="640" type="line"/>
      <point x="748" y="650" type="line"/>
      <point x="747" y="660" type="line"/>
      <point x="745" y="671" type="line"/>
      <point x="744" y="682" type="line"/>
      <point x="742" y="694" type="line"/>
      <point x="739" y="706" type="line"/>
      <point x="736" y="718" type="line"/>
      <point x="732" y="731" type="line"/>
      <point x="727" y="744" type="line"/>
      <point x="721" y="757" type="line"/>
      <point x="714" y="770" type="line"/>
      <point x="707" y="783" type="line"/>
      <point x="698" y="796" type="line"/>
      <point x="688" y="808" type="line"/>
      <point x="677" y="820" type="line"/>
      <point x="664" y="832" type="line"/>
      <point x="651" y="843" type="line" smooth="yes"/>
      <point x="649" y="844"/>
      <point x="647" y="846"/>
      <point x="645" y="847" type="curve" smooth="yes"/>
      <point x="636" y="853" type="line"/>
      <point x="621" y="862" type="line"/>
      <point x="605" y="870" type="line"/>
      <point x="588" y="877" type="line"/>
      <point x="570" y="883" type="line"/>
      <point x="552" y="888" type="line"/>
      <point x="532" y="893" type="line"/>
      <point x="513" y="896" type="line"/>
      <point x="492" y="898" type="line"/>
      <point x="471" y="899" type="line"/>
      <point x="449" y="900" type="line"/>
      <point x="437" y="900" type="line"/>
      <point x="348" y="900" type="line"/>
      <point x="336" y="900" type="line"/>
      <point x="321" y="898" type="line"/>
      <point x="312" y="897" type="line"/>
      <point x="303" y="896" type="line"/>
      <point x="293" y="894" type="line"/>
      <point x="282" y="892" type="line"/>
      <point x="271" y="890" type="line"/>
      <point x="259" y="886" type="line"/>
      <point x="246" y="882" type="line"/>
      <point x="233" y="878" type="line"/>
      <point x="220" y="872" type="line"/>
      <point x="206" y="866" type="line"/>
      <point x="192" y="859" type="line"/>
      <point x="179" y="850" type="line"/>
      <point x="165" y="841" type="line"/>
      <point x="151" y="830" type="line"/>
      <point x="137" y="818" type="line"/>
      <point x="124" y="805" type="line"/>
      <point x="111" y="790" type="line"/>
      <point x="99" y="774" type="line" smooth="yes"/>
      <point x="98" y="772"/>
      <point x="96" y="769"/>
      <point x="95" y="768" type="curve" smooth="yes"/>
      <point x="89" y="756" type="line"/>
      <point x="79" y="738" type="line"/>
      <point x="70" y="718" type="line" smooth="yes"/>
      <point x="70" y="716"/>
      <point x="68" y="712"/>
      <point x="68" y="710" type="curve" smooth="yes"/>
      <point x="63" y="696" type="line"/>
      <point x="58" y="674" type="line"/>
      <point x="54" y="651" type="line"/>
      <point x="51" y="627" type="line"/>
      <point x="50" y="602" type="line" smooth="yes"/>
      <point x="48" y="548"/>
      <point x="93" y="501"/>
      <point x="147" y="499" type="curve" smooth="yes"/>
      <point x="201" y="497"/>
      <point x="248" y="542"/>
      <point x="250" y="596" type="curve" smooth="yes"/>
      <point x="250" y="608" type="line"/>
      <point x="251" y="618" type="line"/>
      <point x="252" y="628" type="line"/>
      <point x="254" y="635" type="line"/>
      <point x="258" y="649" type="line"/>
      <point x="260" y="653" type="line"/>
      <point x="266" y="664" type="line"/>
      <point x="268" y="666" type="line"/>
      <point x="271" y="670" type="line"/>
      <point x="275" y="673" type="line"/>
      <point x="278" y="677" type="line"/>
      <point x="283" y="680" type="line"/>
      <point x="287" y="683" type="line"/>
      <point x="292" y="685" type="line"/>
      <point x="297" y="688" type="line"/>
      <point x="302" y="690" type="line"/>
      <point x="307" y="692" type="line"/>
      <point x="312" y="694" type="line"/>
      <point x="317" y="695" type="line"/>
      <point x="322" y="696" type="line"/>
      <point x="327" y="697" type="line"/>
      <point x="332" y="698" type="line"/>
      <point x="336" y="699" type="line"/>
      <point x="338" y="699" type="line"/>
      <point x="343" y="700" type="line"/>
      <point x="348" y="700" type="line"/>
      <point x="437" y="700" type="line"/>
      <point x="445" y="700" type="line"/>
      <point x="459" y="700" type="line"/>
      <point x="471" y="699" type="line"/>
      <point x="482" y="698" type="line"/>
      <point x="491" y="697" type="line"/>
      <point x="500" y="695" type="line"/>
      <point x="507" y="693" type="line"/>
      <point x="513" y="692" type="line"/>
      <point x="518" y="690" type="line"/>
      <point x="522" y="688" type="line"/>
      <point x="525" y="687" type="line"/>
      <point x="533" y="681" type="line"/>
      <point x="527" y="685" type="line"/>
      <point x="530" y="684" type="line"/>
      <point x="532" y="682" type="line"/>
      <point x="533" y="681" type="line"/>
      <point x="535" y="680" type="line"/>
      <point x="536" y="678" type="line"/>
      <point x="538" y="676" type="line"/>
      <point x="539" y="674" type="line"/>
      <point x="540" y="671" type="line"/>
      <point x="542" y="668" type="line"/>
      <point x="543" y="665" type="line"/>
      <point x="544" y="661" type="line"/>
      <point x="545" y="657" type="line"/>
      <point x="546" y="652" type="line"/>
      <point x="547" y="647" type="line"/>
      <point x="547" y="642" type="line"/>
      <point x="548" y="637" type="line"/>
      <point x="548" y="631" type="line"/>
      <point x="549" y="625" type="line"/>
      <point x="549" y="619" type="line"/>
      <point x="549" y="613" type="line"/>
      <point x="549" y="607" type="line"/>
      <point x="549" y="602" type="line"/>
      <point x="549" y="588" type="line"/>
      <point x="548" y="576" type="line"/>
      <point x="547" y="565" type="line"/>
      <point x="546" y="556" type="line"/>
      <point x="544" y="548" type="line"/>
      <point x="543" y="540" type="line"/>
      <point x="541" y="535" type="line"/>
      <point x="539" y="530" type="line"/>
      <point x="537" y="526" type="line"/>
      <point x="532" y="517" type="line"/>
      <point x="536" y="523" type="line"/>
      <point x="534" y="520" type="line"/>
      <point x="533" y="518" type="line"/>
      <point x="532" y="516" type="line"/>
      <point x="530" y="514" type="line"/>
      <point x="529" y="513" type="line"/>
      <point x="527" y="512" type="line"/>
      <point x="525" y="510" type="line"/>
      <point x="523" y="509" type="line"/>
      <point x="521" y="507" type="line"/>
      <point x="518" y="506" type="line"/>
      <point x="514" y="505" type="line"/>
      <point x="510" y="504" type="line"/>
      <point x="506" y="503" type="line"/>
      <point x="502" y="502" type="line"/>
      <point x="497" y="501" type="line"/>
      <point x="492" y="500" type="line"/>
      <point x="486" y="500" type="line"/>
      <point x="480" y="500" type="line"/>
      <point x="474" y="499" type="line"/>
      <point x="468" y="499" type="line"/>
      <point x="462" y="499" type="line"/>
      <point x="456" y="499" type="line"/>
      <point x="359" y="499" type="line"/>
      <point x="349" y="499" type="line" smooth="yes"/>
      <point x="294" y="499"/>
      <point x="249" y="454"/>
      <point x="249" y="399" type="curve" smooth="yes"/>
      <point x="249" y="200" type="line" smooth="yes"/>
      <point x="249" y="157"/>
      <point x="278" y="119"/>
      <point x="317" y="105" type="curve"/>
      <point x="278" y="92"/>
      <point x="249" y="54"/>
      <point x="249" y="11" type="curve" smooth="yes"/>
      <point x="249" y="0" type="line" smooth="yes"/>
      <point x="249" y="-54"/>
      <point x="295" y="-100"/>
    </contour>
    <contour>
      <point x="262" y="658" type="line"/>
      <point x="265" y="662" type="line"/>
      <point x="266" y="664" type="line"/>
    </contour>
    <contour>
      <point x="256" y="642" type="line"/>
      <point x="258" y="648" type="line"/>
      <point x="258" y="649" type="line"/>
    </contour>
  </outline>
</glyph>
<glyph name="at" format="1">
  <advance width="900"/>
  <unicode hex="0040"/>
  <outline>
    <contour>
      <point x="550" y="-142" type="line" smooth="yes"/>
      <point x="604" y="-142"/>
      <point x="650" y="-96"/>
      <point x="650" y="-42" type="curve" smooth="yes"/>
      <point x="650" y="12"/>
      <point x="604" y="58"/>
      <point x="550" y="58" type="curve" smooth="yes"/>
      <point x="352" y="58" type="line"/>
      <point x="336" y="58" type="line"/>
      <point x="324" y="59" type="line"/>
      <point x="312" y="60" type="line"/>
      <point x="303" y="62" type="line"/>
      <point x="294" y="64" type="line"/>
      <point x="287" y="66" type="line"/>
      <point x="280" y="68" type="line"/>
      <point x="275" y="71" type="line"/>
      <point x="271" y="73" type="line"/>
      <point x="271" y="73" type="line"/>
      <point x="264" y="79" type="line"/>
      <point x="262" y="81" type="line"/>
      <point x="261" y="82" type="line"/>
      <point x="260" y="84" type="line"/>
      <point x="259" y="86" type="line"/>
      <point x="258" y="87" type="line"/>
      <point x="257" y="90" type="line"/>
      <point x="256" y="92" type="line"/>
      <point x="256" y="95" type="line"/>
      <point x="255" y="98" type="line"/>
      <point x="254" y="101" type="line"/>
      <point x="253" y="105" type="line"/>
      <point x="252" y="109" type="line"/>
      <point x="252" y="114" type="line"/>
      <point x="251" y="119" type="line"/>
      <point x="251" y="124" type="line"/>
      <point x="250" y="129" type="line"/>
      <point x="250" y="134" type="line"/>
      <point x="250" y="140" type="line"/>
      <point x="250" y="146" type="line"/>
      <point x="250" y="152" type="line"/>
      <point x="250" y="158" type="line"/>
      <point x="250" y="168" type="line"/>
      <point x="250" y="562" type="line"/>
      <point x="250" y="570" type="line"/>
      <point x="250" y="576" type="line"/>
      <point x="250" y="582" type="line"/>
      <point x="250" y="588" type="line"/>
      <point x="250" y="594" type="line"/>
      <point x="250" y="600" type="line"/>
      <point x="251" y="605" type="line"/>
      <point x="251" y="610" type="line"/>
      <point x="252" y="615" type="line"/>
      <point x="253" y="619" type="line"/>
      <point x="254" y="623" type="line"/>
      <point x="255" y="626" type="line"/>
      <point x="256" y="630" type="line"/>
      <point x="257" y="632" type="line"/>
      <point x="258" y="634" type="line"/>
      <point x="262" y="640" type="line"/>
      <point x="270" y="645" type="line"/>
      <point x="273" y="647" type="line"/>
      <point x="277" y="648" type="line"/>
      <point x="282" y="650" type="line"/>
      <point x="288" y="652" type="line"/>
      <point x="295" y="653" type="line"/>
      <point x="303" y="655" type="line"/>
      <point x="313" y="656" type="line"/>
      <point x="324" y="657" type="line"/>
      <point x="336" y="658" type="line"/>
      <point x="350" y="658" type="line"/>
      <point x="358" y="658" type="line"/>
      <point x="547" y="658" type="line"/>
      <point x="547" y="658" type="line"/>
      <point x="543" y="658" type="line"/>
      <point x="535" y="658" type="line"/>
      <point x="527" y="658" type="line"/>
      <point x="518" y="658" type="line"/>
      <point x="508" y="657" type="line"/>
      <point x="498" y="657" type="line"/>
      <point x="488" y="656" type="line"/>
      <point x="477" y="654" type="line"/>
      <point x="465" y="653" type="line"/>
      <point x="453" y="650" type="line"/>
      <point x="441" y="648" type="line"/>
      <point x="428" y="644" type="line"/>
      <point x="415" y="640" type="line"/>
      <point x="402" y="635" type="line"/>
      <point x="389" y="629" type="line"/>
      <point x="376" y="622" type="line"/>
      <point x="362" y="613" type="line"/>
      <point x="349" y="604" type="line"/>
      <point x="342" y="598" type="line" smooth="yes"/>
      <point x="341" y="597"/>
      <point x="338" y="595"/>
      <point x="337" y="594" type="curve" smooth="yes"/>
      <point x="325" y="582" type="line"/>
      <point x="314" y="569" type="line"/>
      <point x="303" y="556" type="line"/>
      <point x="294" y="541" type="line"/>
      <point x="285" y="526" type="line"/>
      <point x="277" y="510" type="line"/>
      <point x="271" y="493" type="line"/>
      <point x="265" y="475" type="line"/>
      <point x="260" y="457" type="line"/>
      <point x="257" y="438" type="line"/>
      <point x="254" y="419" type="line"/>
      <point x="252" y="399" type="line"/>
      <point x="250" y="378" type="line"/>
      <point x="250" y="354" type="line"/>
      <point x="251" y="341" type="line"/>
      <point x="252" y="328" type="line"/>
      <point x="253" y="319" type="line"/>
      <point x="254" y="310" type="line"/>
      <point x="256" y="299" type="line"/>
      <point x="258" y="289" type="line"/>
      <point x="261" y="277" type="line"/>
      <point x="265" y="265" type="line"/>
      <point x="269" y="252" type="line"/>
      <point x="274" y="239" type="line"/>
      <point x="279" y="225" type="line"/>
      <point x="286" y="211" type="line"/>
      <point x="293" y="197" type="line"/>
      <point x="302" y="183" type="line"/>
      <point x="312" y="169" type="line"/>
      <point x="323" y="155" type="line"/>
      <point x="336" y="141" type="line"/>
      <point x="350" y="128" type="line"/>
      <point x="359" y="120" type="line" smooth="yes"/>
      <point x="361" y="119"/>
      <point x="363" y="117"/>
      <point x="365" y="115" type="curve" smooth="yes"/>
      <point x="381" y="104" type="line"/>
      <point x="393" y="97" type="line" smooth="yes"/>
      <point x="394" y="96"/>
      <point x="397" y="94"/>
      <point x="399" y="93" type="curve" smooth="yes"/>
      <point x="418" y="84" type="line"/>
      <point x="431" y="79" type="line" smooth="yes"/>
      <point x="433" y="78"/>
      <point x="437" y="77"/>
      <point x="439" y="76" type="curve" smooth="yes"/>
      <point x="460" y="69" type="line"/>
      <point x="482" y="64" type="line"/>
      <point x="505" y="61" type="line"/>
      <point x="529" y="59" type="line"/>
      <point x="544" y="58" type="line"/>
      <point x="546" y="58"/>
      <point x="548" y="58"/>
      <point x="550" y="58" type="curve" smooth="yes"/>
      <point x="550" y="58" type="line"/>
      <point x="550" y="58" type="line"/>
      <point x="557" y="58" type="line"/>
      <point x="565" y="58" type="line"/>
      <point x="573" y="58" type="line"/>
      <point x="582" y="58" type="line"/>
      <point x="592" y="59" type="line"/>
      <point x="602" y="60" type="line"/>
      <point x="613" y="60" type="line"/>
      <point x="624" y="62" type="line"/>
      <point x="635" y="64" type="line"/>
      <point x="647" y="66" type="line"/>
      <point x="660" y="69" type="line"/>
      <point x="672" y="72" type="line"/>
      <point x="685" y="77" type="line"/>
      <point x="698" y="82" type="line"/>
      <point x="712" y="88" type="line"/>
      <point x="725" y="95" type="line"/>
      <point x="738" y="103" type="line"/>
      <point x="751" y="113" type="line"/>
      <point x="763" y="123" type="line"/>
      <point x="775" y="135" type="line"/>
      <point x="786" y="147" type="line"/>
      <point x="797" y="161" type="line"/>
      <point x="803" y="170" type="line" smooth="yes"/>
      <point x="804" y="171"/>
      <point x="805" y="174"/>
      <point x="806" y="176" type="curve" smooth="yes"/>
      <point x="815" y="191" type="line"/>
      <point x="823" y="207" type="line"/>
      <point x="829" y="224" type="line"/>
      <point x="835" y="242" type="line"/>
      <point x="840" y="260" type="line"/>
      <point x="843" y="279" type="line"/>
      <point x="846" y="298" type="line"/>
      <point x="848" y="318" type="line"/>
      <point x="850" y="339" type="line"/>
      <point x="850" y="359" type="line"/>
      <point x="850" y="548" type="line"/>
      <point x="850" y="558" type="line"/>
      <point x="850" y="565" type="line"/>
      <point x="850" y="573" type="line"/>
      <point x="850" y="581" type="line"/>
      <point x="850" y="591" type="line"/>
      <point x="849" y="600" type="line"/>
      <point x="848" y="610" type="line"/>
      <point x="847" y="621" type="line"/>
      <point x="846" y="632" type="line"/>
      <point x="844" y="644" type="line"/>
      <point x="842" y="656" type="line"/>
      <point x="839" y="668" type="line"/>
      <point x="835" y="681" type="line"/>
      <point x="831" y="694" type="line"/>
      <point x="826" y="707" type="line"/>
      <point x="819" y="720" type="line"/>
      <point x="812" y="733" type="line"/>
      <point x="804" y="746" type="line"/>
      <point x="794" y="759" type="line"/>
      <point x="784" y="772" type="line"/>
      <point x="772" y="783" type="line"/>
      <point x="760" y="795" type="line"/>
      <point x="752" y="801" type="line" smooth="yes"/>
      <point x="750" y="802"/>
      <point x="748" y="804"/>
      <point x="746" y="805" type="curve" smooth="yes"/>
      <point x="731" y="814" type="line"/>
      <point x="716" y="823" type="line"/>
      <point x="700" y="831" type="line"/>
      <point x="683" y="837" type="line"/>
      <point x="665" y="843" type="line"/>
      <point x="647" y="848" type="line"/>
      <point x="628" y="851" type="line"/>
      <point x="609" y="854" type="line"/>
      <point x="589" y="856" type="line"/>
      <point x="568" y="858" type="line"/>
      <point x="550" y="858" type="line" smooth="yes"/>
      <point x="549" y="858"/>
      <point x="549" y="858"/>
      <point x="548" y="858" type="curve" smooth="yes"/>
      <point x="358" y="858" type="line"/>
      <point x="346" y="858" type="line"/>
      <point x="324" y="857" type="line"/>
      <point x="303" y="856" type="line"/>
      <point x="282" y="854" type="line"/>
      <point x="263" y="851" type="line"/>
      <point x="244" y="847" type="line"/>
      <point x="225" y="841" type="line"/>
      <point x="207" y="835" type="line"/>
      <point x="190" y="828" type="line"/>
      <point x="174" y="820" type="line"/>
      <point x="159" y="811" type="line"/>
      <point x="151" y="806" type="line" smooth="yes"/>
      <point x="149" y="804"/>
      <point x="146" y="802"/>
      <point x="145" y="801" type="curve" smooth="yes"/>
      <point x="131" y="790" type="line"/>
      <point x="119" y="779" type="line"/>
      <point x="108" y="767" type="line"/>
      <point x="102" y="760" type="line" smooth="yes"/>
      <point x="101" y="758"/>
      <point x="99" y="756"/>
      <point x="98" y="754" type="curve" smooth="yes"/>
      <point x="89" y="741" type="line"/>
      <point x="81" y="728" type="line"/>
      <point x="75" y="715" type="line"/>
      <point x="69" y="702" type="line"/>
      <point x="65" y="689" type="line"/>
      <point x="61" y="676" type="line"/>
      <point x="58" y="664" type="line"/>
      <point x="56" y="652" type="line"/>
      <point x="54" y="641" type="line"/>
      <point x="52" y="630" type="line"/>
      <point x="51" y="619" type="line"/>
      <point x="51" y="609" type="line"/>
      <point x="50" y="599" type="line"/>
      <point x="50" y="590" type="line"/>
      <point x="50" y="582" type="line"/>
      <point x="50" y="574" type="line"/>
      <point x="50" y="567" type="line"/>
      <point x="50" y="562" type="line"/>
      <point x="50" y="168" type="line"/>
      <point x="50" y="158" type="line"/>
      <point x="50" y="151" type="line"/>
      <point x="50" y="143" type="line"/>
      <point x="50" y="135" type="line"/>
      <point x="50" y="125" type="line"/>
      <point x="51" y="116" type="line"/>
      <point x="52" y="106" type="line"/>
      <point x="53" y="95" type="line"/>
      <point x="54" y="84" type="line"/>
      <point x="56" y="72" type="line"/>
      <point x="58" y="60" type="line"/>
      <point x="61" y="48" type="line"/>
      <point x="65" y="35" type="line"/>
      <point x="69" y="22" type="line"/>
      <point x="74" y="9" type="line"/>
      <point x="81" y="-4" type="line"/>
      <point x="88" y="-17" type="line"/>
      <point x="96" y="-30" type="line"/>
      <point x="106" y="-43" type="line"/>
      <point x="116" y="-56" type="line"/>
      <point x="128" y="-67" type="line"/>
      <point x="140" y="-79" type="line"/>
      <point x="148" y="-85" type="line" smooth="yes"/>
      <point x="150" y="-86"/>
      <point x="152" y="-88"/>
      <point x="154" y="-89" type="curve" smooth="yes"/>
      <point x="169" y="-98" type="line"/>
      <point x="184" y="-107" type="line"/>
      <point x="200" y="-115" type="line"/>
      <point x="217" y="-121" type="line"/>
      <point x="235" y="-127" type="line"/>
      <point x="253" y="-132" type="line"/>
      <point x="272" y="-135" type="line"/>
      <point x="291" y="-138" type="line"/>
      <point x="311" y="-140" type="line"/>
      <point x="332" y="-142" type="line"/>
      <point x="352" y="-142" type="line"/>
    </contour>
    <contour>
      <point x="564" y="658" type="line"/>
      <point x="576" y="657" type="line"/>
      <point x="588" y="656" type="line"/>
      <point x="597" y="654" type="line"/>
      <point x="606" y="652" type="line"/>
      <point x="613" y="650" type="line"/>
      <point x="620" y="648" type="line"/>
      <point x="625" y="645" type="line"/>
      <point x="629" y="643" type="line"/>
      <point x="629" y="643" type="line"/>
      <point x="636" y="637" type="line"/>
      <point x="638" y="635" type="line"/>
      <point x="639" y="634" type="line"/>
      <point x="640" y="632" type="line"/>
      <point x="641" y="630" type="line"/>
      <point x="642" y="629" type="line"/>
      <point x="643" y="626" type="line"/>
      <point x="644" y="624" type="line"/>
      <point x="644" y="621" type="line"/>
      <point x="645" y="618" type="line"/>
      <point x="646" y="615" type="line"/>
      <point x="647" y="611" type="line"/>
      <point x="648" y="607" type="line"/>
      <point x="648" y="602" type="line"/>
      <point x="649" y="597" type="line"/>
      <point x="649" y="592" type="line"/>
      <point x="650" y="587" type="line"/>
      <point x="650" y="582" type="line"/>
      <point x="650" y="576" type="line"/>
      <point x="650" y="570" type="line"/>
      <point x="650" y="564" type="line"/>
      <point x="650" y="558" type="line"/>
      <point x="650" y="559" type="line"/>
      <point x="650" y="559"/>
      <point x="650" y="560"/>
      <point x="650" y="561" type="curve"/>
      <point x="650" y="560"/>
      <point x="650" y="562"/>
      <point x="650" y="564" type="curve"/>
      <point x="650" y="565"/>
      <point x="650" y="566"/>
      <point x="650" y="566" type="curve"/>
      <point x="650" y="567"/>
      <point x="649" y="569"/>
      <point x="649" y="569" type="curve"/>
      <point x="649" y="570"/>
      <point x="649" y="571"/>
      <point x="649" y="572" type="curve"/>
      <point x="649" y="573"/>
      <point x="649" y="574"/>
      <point x="648" y="575" type="curve"/>
      <point x="648" y="576"/>
      <point x="648" y="576"/>
      <point x="648" y="577" type="curve"/>
      <point x="648" y="578"/>
      <point x="648" y="579"/>
      <point x="647" y="580" type="curve"/>
      <point x="647" y="581"/>
      <point x="647" y="582"/>
      <point x="647" y="582" type="curve"/>
      <point x="647" y="583"/>
      <point x="646" y="585"/>
      <point x="646" y="586" type="curve"/>
      <point x="646" y="586"/>
      <point x="646" y="587"/>
      <point x="645" y="587" type="curve"/>
      <point x="645" y="588"/>
      <point x="645" y="590"/>
      <point x="644" y="591" type="curve"/>
      <point x="644" y="591"/>
      <point x="644" y="592"/>
      <point x="644" y="592" type="curve"/>
      <point x="643" y="593"/>
      <point x="643" y="595"/>
      <point x="642" y="596" type="curve"/>
      <point x="642" y="596"/>
      <point x="642" y="597"/>
      <point x="642" y="597" type="curve"/>
      <point x="641" y="598"/>
      <point x="641" y="599"/>
      <point x="640" y="601" type="curve"/>
      <point x="640" y="601"/>
      <point x="640" y="601"/>
      <point x="639" y="602" type="curve"/>
      <point x="639" y="603"/>
      <point x="638" y="604"/>
      <point x="638" y="605" type="curve"/>
      <point x="637" y="606"/>
      <point x="637" y="606"/>
      <point x="637" y="606" type="curve"/>
      <point x="636" y="608"/>
      <point x="636" y="609"/>
      <point x="635" y="610" type="curve"/>
      <point x="635" y="610"/>
      <point x="634" y="611"/>
      <point x="634" y="611" type="curve"/>
      <point x="634" y="612"/>
      <point x="633" y="613"/>
      <point x="632" y="614" type="curve"/>
      <point x="632" y="614"/>
      <point x="632" y="615"/>
      <point x="631" y="615" type="curve"/>
      <point x="631" y="616"/>
      <point x="630" y="617"/>
      <point x="629" y="618" type="curve"/>
      <point x="629" y="618"/>
      <point x="629" y="619"/>
      <point x="628" y="619" type="curve"/>
      <point x="627" y="620"/>
      <point x="627" y="621"/>
      <point x="626" y="622" type="curve"/>
      <point x="626" y="622"/>
      <point x="625" y="623"/>
      <point x="625" y="623" type="curve"/>
      <point x="624" y="624"/>
      <point x="624" y="625"/>
      <point x="623" y="625" type="curve"/>
      <point x="622" y="626"/>
      <point x="622" y="627"/>
      <point x="621" y="627" type="curve"/>
      <point x="621" y="628"/>
      <point x="620" y="629"/>
      <point x="619" y="629" type="curve"/>
      <point x="619" y="630"/>
      <point x="618" y="630"/>
      <point x="617" y="631" type="curve"/>
      <point x="617" y="632"/>
      <point x="616" y="632"/>
      <point x="616" y="633" type="curve"/>
      <point x="615" y="633"/>
      <point x="614" y="634"/>
      <point x="613" y="634" type="curve"/>
      <point x="613" y="635"/>
      <point x="612" y="635"/>
      <point x="612" y="636" type="curve"/>
      <point x="611" y="637"/>
      <point x="610" y="637"/>
      <point x="609" y="638" type="curve"/>
      <point x="609" y="638"/>
      <point x="608" y="638"/>
      <point x="608" y="639" type="curve"/>
      <point x="607" y="640"/>
      <point x="606" y="640"/>
      <point x="605" y="641" type="curve"/>
      <point x="605" y="641"/>
      <point x="604" y="641"/>
      <point x="604" y="642" type="curve"/>
      <point x="603" y="642"/>
      <point x="602" y="643"/>
      <point x="601" y="644" type="curve"/>
      <point x="600" y="644"/>
      <point x="600" y="644"/>
      <point x="599" y="644" type="curve"/>
      <point x="598" y="645"/>
      <point x="597" y="646"/>
      <point x="596" y="646" type="curve"/>
      <point x="596" y="646"/>
      <point x="595" y="647"/>
      <point x="595" y="647" type="curve"/>
      <point x="594" y="647"/>
      <point x="593" y="648"/>
      <point x="591" y="649" type="curve"/>
      <point x="591" y="649"/>
      <point x="590" y="649"/>
      <point x="590" y="649" type="curve"/>
      <point x="589" y="650"/>
      <point x="588" y="650"/>
      <point x="587" y="651" type="curve"/>
      <point x="586" y="651"/>
      <point x="586" y="651"/>
      <point x="585" y="651" type="curve"/>
      <point x="584" y="652"/>
      <point x="583" y="652"/>
      <point x="582" y="653" type="curve"/>
      <point x="581" y="653"/>
      <point x="581" y="653"/>
      <point x="580" y="653" type="curve"/>
      <point x="579" y="653"/>
      <point x="578" y="654"/>
      <point x="577" y="654" type="curve"/>
      <point x="576" y="654"/>
      <point x="576" y="654"/>
      <point x="575" y="655" type="curve"/>
      <point x="574" y="655"/>
      <point x="573" y="655"/>
      <point x="571" y="656" type="curve"/>
      <point x="571" y="656"/>
      <point x="570" y="656"/>
      <point x="570" y="656" type="curve"/>
      <point x="568" y="656"/>
      <point x="567" y="656"/>
      <point x="566" y="657" type="curve"/>
      <point x="565" y="657"/>
      <point x="565" y="657"/>
      <point x="564" y="657" type="curve"/>
      <point x="563" y="657"/>
      <point x="562" y="657"/>
      <point x="561" y="657" type="curve"/>
      <point x="560" y="657"/>
      <point x="559" y="658"/>
      <point x="558" y="658" type="curve"/>
      <point x="556" y="658" type="line"/>
    </contour>
    <contour>
      <point x="263" y="640" type="line"/>
      <point x="264" y="642" type="line"/>
      <point x="266" y="643" type="line"/>
      <point x="268" y="644" type="line"/>
      <point x="262" y="640" type="line"/>
    </contour>
    <contour>
      <point x="634" y="639" type="line"/>
      <point x="629" y="643" type="line"/>
      <point x="632" y="641" type="line"/>
    </contour>
    <contour>
      <point x="259" y="636" type="line"/>
      <point x="260" y="638" type="line"/>
      <point x="262" y="639" type="line"/>
      <point x="258" y="635" type="line"/>
    </contour>
    <contour>
      <point x="650" y="558" type="line"/>
      <point x="650" y="558" type="line"/>
      <point x="650" y="558" type="line"/>
    </contour>
    <contour>
      <point x="650" y="548" type="line"/>
      <point x="650" y="558" type="line"/>
      <point x="650" y="558" type="line"/>
    </contour>
    <contour>
      <point x="450" y="358" type="line"/>
      <point x="450" y="362" type="line"/>
      <point x="450" y="364" type="line"/>
      <point x="450" y="357" type="line"/>
    </contour>
    <contour>
      <point x="268" y="75" type="line"/>
      <point x="266" y="77" type="line"/>
      <point x="271" y="73" type="line"/>
    </contour>
  </outline>
</glyph>
<glyph name="D" format="1">
  <advance width="900"/>
  <unicode hex="0044"/>
  <outline>
    <contour>
      <point x="150" y="-101" type="curve" smooth="yes"/>
      <point x="557" y="-101" type="line"/>
      <point x="564" y="-101" type="line"/>
      <point x="572" y="-101" type="line"/>
      <point x="580" y="-101" type="line"/>
      <point x="590" y="-100" type="line"/>
      <point x="599" y="-100" type="line"/>
      <point x="610" y="-99" type="line"/>
      <point x="620" y="-98" type="line"/>
      <point x="631" y="-96" type="line"/>
      <point x="643" y="-94" type="line"/>
      <point x="655" y="-92" type="line"/>
      <point x="667" y="-89" type="line"/>
      <point x="680" y="-85" type="line"/>
      <point x="693" y="-80" type="line"/>
      <point x="706" y="-74" type="line"/>
      <point x="719" y="-68" type="line"/>
      <point x="732" y="-60" type="line"/>
      <point x="745" y="-51" type="line"/>
      <point x="758" y="-41" type="line" smooth="yes"/>
      <point x="759" y="-40"/>
      <point x="762" y="-38"/>
      <point x="763" y="-37" type="curve" smooth="yes"/>
      <point x="770" y="-30" type="line"/>
      <point x="781" y="-18" type="line"/>
      <point x="792" y="-5" type="line"/>
      <point x="802" y="10" type="line"/>
      <point x="812" y="25" type="line"/>
      <point x="820" y="41" type="line"/>
      <point x="827" y="58" type="line"/>
      <point x="833" y="76" type="line"/>
      <point x="838" y="94" type="line"/>
      <point x="842" y="114" type="line"/>
      <point x="846" y="133" type="line"/>
      <point x="848" y="154" type="line"/>
      <point x="849" y="175" type="line"/>
      <point x="850" y="197" type="line"/>
      <point x="850" y="209" type="line"/>
      <point x="850" y="589" type="line" smooth="yes"/>
      <point x="850" y="591"/>
      <point x="850" y="593"/>
      <point x="850" y="594" type="curve"/>
      <point x="850" y="599" type="line" smooth="yes"/>
      <point x="850" y="606" type="line"/>
      <point x="850" y="613" type="line"/>
      <point x="850" y="621" type="line"/>
      <point x="850" y="630" type="line"/>
      <point x="849" y="639" type="line"/>
      <point x="849" y="649" type="line"/>
      <point x="848" y="659" type="line"/>
      <point x="846" y="670" type="line"/>
      <point x="845" y="681" type="line"/>
      <point x="843" y="693" type="line"/>
      <point x="840" y="705" type="line"/>
      <point x="837" y="717" type="line"/>
      <point x="833" y="730" type="line"/>
      <point x="828" y="743" type="line"/>
      <point x="822" y="756" type="line"/>
      <point x="815" y="769" type="line"/>
      <point x="808" y="782" type="line"/>
      <point x="799" y="795" type="line"/>
      <point x="789" y="807" type="line"/>
      <point x="778" y="819" type="line"/>
      <point x="765" y="831" type="line"/>
      <point x="752" y="842" type="line" smooth="yes"/>
      <point x="750" y="843"/>
      <point x="748" y="845"/>
      <point x="746" y="846" type="curve" smooth="yes"/>
      <point x="737" y="852" type="line"/>
      <point x="722" y="861" type="line"/>
      <point x="706" y="869" type="line"/>
      <point x="689" y="876" type="line"/>
      <point x="671" y="882" type="line"/>
      <point x="653" y="887" type="line"/>
      <point x="633" y="892" type="line"/>
      <point x="614" y="895" type="line"/>
      <point x="593" y="897" type="line"/>
      <point x="572" y="898" type="line"/>
      <point x="550" y="899" type="line"/>
      <point x="543" y="899" type="line"/>
      <point x="150" y="899" type="line" smooth="yes"/>
      <point x="95" y="899"/>
      <point x="50" y="854"/>
      <point x="50" y="799" type="curve"/>
      <point x="50" y="-1" type="line"/>
      <point x="50" y="-56"/>
      <point x="95" y="-101"/>
    </contour>
    <contour>
      <point x="543" y="699" type="line"/>
      <point x="546" y="699" type="line"/>
      <point x="560" y="699" type="line"/>
      <point x="572" y="698" type="line"/>
      <point x="583" y="697" type="line"/>
      <point x="592" y="696" type="line"/>
      <point x="601" y="694" type="line"/>
      <point x="608" y="692" type="line"/>
      <point x="614" y="691" type="line"/>
      <point x="619" y="689" type="line"/>
      <point x="623" y="687" type="line"/>
      <point x="626" y="686" type="line"/>
      <point x="634" y="680" type="line"/>
      <point x="628" y="684" type="line"/>
      <point x="631" y="683" type="line"/>
      <point x="633" y="681" type="line"/>
      <point x="634" y="680" type="line"/>
      <point x="636" y="679" type="line"/>
      <point x="637" y="677" type="line"/>
      <point x="639" y="675" type="line"/>
      <point x="640" y="673" type="line"/>
      <point x="641" y="670" type="line"/>
      <point x="643" y="667" type="line"/>
      <point x="644" y="664" type="line"/>
      <point x="645" y="660" type="line"/>
      <point x="646" y="656" type="line"/>
      <point x="647" y="651" type="line"/>
      <point x="648" y="646" type="line"/>
      <point x="648" y="641" type="line"/>
      <point x="649" y="636" type="line"/>
      <point x="649" y="630" type="line"/>
      <point x="650" y="624" type="line"/>
      <point x="650" y="618" type="line"/>
      <point x="650" y="612" type="line"/>
      <point x="650" y="606" type="line"/>
      <point x="650" y="599" type="line" smooth="yes"/>
      <point x="650" y="597"/>
      <point x="650" y="595"/>
      <point x="650" y="594" type="curve"/>
      <point x="650" y="589" type="line" smooth="yes"/>
      <point x="650" y="209" type="line"/>
      <point x="650" y="201" type="line"/>
      <point x="650" y="187" type="line"/>
      <point x="649" y="175" type="line"/>
      <point x="648" y="164" type="line"/>
      <point x="647" y="155" type="line"/>
      <point x="645" y="147" type="line"/>
      <point x="644" y="140" type="line"/>
      <point x="642" y="134" type="line"/>
      <point x="640" y="129" type="line"/>
      <point x="638" y="125" type="line"/>
      <point x="637" y="122" type="line"/>
      <point x="636" y="119" type="line"/>
      <point x="634" y="117" type="line"/>
      <point x="633" y="116" type="line"/>
      <point x="627" y="110" type="line"/>
      <point x="625" y="109" type="line"/>
      <point x="622" y="107" type="line"/>
      <point x="619" y="106" type="line"/>
      <point x="616" y="105" type="line"/>
      <point x="612" y="104" type="line"/>
      <point x="608" y="103" type="line"/>
      <point x="603" y="102" type="line"/>
      <point x="598" y="101" type="line"/>
      <point x="593" y="100" type="line"/>
      <point x="587" y="100" type="line"/>
      <point x="582" y="100" type="line"/>
      <point x="576" y="99" type="line"/>
      <point x="570" y="99" type="line"/>
      <point x="563" y="99" type="line"/>
      <point x="557" y="99" type="line"/>
      <point x="250" y="99" type="line"/>
      <point x="250" y="699" type="line"/>
    </contour>
    <contour>
      <point x="632" y="114" type="line"/>
      <point x="630" y="113" type="line"/>
      <point x="629" y="111" type="line"/>
      <point x="627" y="110" type="line"/>
    </contour>
  </outline>
</glyph>
